                                                                        S      1
,,13HAluminumRodEL,13HAluminumRodEL,7Hunknown,7Hunknown,32,38,7,99,15,, G      1
1.,2,2HMM,1,0.08,15H20151025.133126,0.01,10000.,7Hunknown,7Hunknown,11, G      2
0,;                                                                     G      3
     186       1                                                00000000D      1
     186             -75       1       0                               0D      2
     514       2                                                00010000D      3
     514                       1       1                               0D      4
     510       3                                                00010000D      5
     510             -75       1       1                               0D      6
     510       4                                                00010000D      7
     510             -75       1       1                               0D      8
     510       5                                                00010000D      9
     510             -75       1       1                               0D     10
     510       6                                                00010000D     11
     510             -75       1       1                               0D     12
     510       7                                                00010000D     13
     510             -75       1       1                               0D     14
     510       8                                                00010000D     15
     510             -75       1       1                               0D     16
     510       9                                                00010000D     17
     510             -75       1       1                               0D     18
     508      10                                                00010000D     19
     508                       1       1                               0D     20
     508      11                                                00010000D     21
     508                       1       1                               0D     22
     508      12                                                00010000D     23
     508                       1       1                               0D     24
     508      13                                                00010000D     25
     508                       1       1                               0D     26
     508      14                                                00010000D     27
     508                       1       1                               0D     28
     508      15                                                00010000D     29
     508                       1       1                               0D     30
     508      16                                                00010000D     31
     508                       1       1                               0D     32
     508      17                                                00010000D     33
     508                       1       1                               0D     34
     508      18                                                00010000D     35
     508                       1       1                               0D     36
     126      19                                                00010000D     37
     126       0              12       0                               0D     38
     126      31                                                00010000D     39
     126       0               3       0                               0D     40
     126      34                                                00010000D     41
     126       0              12       0                               0D     42
     126      46                                                00010000D     43
     126       0              12       0                               0D     44
     126      58                                                00010000D     45
     126       0               3       0                               0D     46
     126      61                                                00010000D     47
     126       0              12       0                               0D     48
     126      73                                                00010000D     49
     126       0              13       0                               0D     50
     126      86                                                00010000D     51
     126       0               4       0                               0D     52
     126      90                                                00010000D     53
     126       0              13       0                               0D     54
     128     103                                                00010000D     55
     128       0     -75      20       0                               0D     56
     128     123                                                00010000D     57
     128       0     -75       7       0                               0D     58
     128     130                                                00010000D     59
     128       0     -75      20       0                               0D     60
     128     150                                                00010000D     61
     128       0     -75       7       0                               0D     62
     128     157                                                00010000D     63
     128       0     -75      21       0                               0D     64
     128     178                                                00010000D     65
     128       0     -75       7       0                               0D     66
     128     185                                                00010000D     67
     128       0     -75       7       0                               0D     68
     502     192                                                00010000D     69
     502                       4       1                               0D     70
     504     196                                                00010001D     71
     504                       2       1                               0D     72
     406     198                                                00000000D     73
     406                       1      15                               0D     74
     314     199                                                00000200D     75
     314                       2       0                               0D     76
     314     201                                                00000200D     77
     314                       2       0                               0D     78
186,3,1,0,0,1,73;                                                      1P      1
514,7,5,1,7,1,9,1,11,1,13,1,15,1,17,1;                                 3P      2
510,55,1,1,19;                                                         5P      3
510,57,1,1,21;                                                         7P      4
510,59,1,1,23;                                                         9P      5
510,61,1,1,25;                                                        11P      6
510,63,1,1,27;                                                        13P      7
510,65,2,1,29,31;                                                     15P      8
510,67,2,1,33,35;                                                     17P      9
508,4,0,71,1,0,0,0,71,2,1,0,0,71,3,1,0,0,71,2,0,0;                    19P     10
508,1,0,71,3,0,0;                                                     21P     11
508,4,0,71,4,0,0,0,71,5,1,0,0,71,6,1,0,0,71,5,0,0;                    23P     12
508,1,0,71,6,0,0;                                                     25P     13
508,4,0,71,7,0,0,0,71,8,1,0,0,71,9,0,0,0,71,8,0,0;                    27P     14
508,1,0,71,9,1,0;                                                     29P     15
508,1,0,71,4,1,0;                                                     31P     16
508,1,0,71,7,1,0;                                                     33P     17
508,1,0,71,1,1,0;                                                     35P     18
126,8,2,0,1,0,0,-3.14159265358979,-3.14159265358979,                  37P     19
-3.14159265358979,-1.5707963267949,-1.5707963267949,0.,0.,            37P     20
1.5707963267949,1.5707963267949,3.14159265358979,                     37P     21
3.14159265358979,3.14159265358979,1.,0.707106781186564,1.,            37P     22
0.707106781186564,1.,0.707106781186564,1.,0.707106781186564,1.,       37P     23
91.5561024477881,-18.7,135.357023371876,88.0386024477881,-18.7,       37P     24
135.357023371876,88.0386024477881,-18.7,138.874523371876,             37P     25
88.0386024477881,-18.7,142.392023371876,91.5561024477881,-18.7,       37P     26
142.392023371876,95.0736024477881,-18.7,142.392023371876,             37P     27
95.0736024477881,-18.7,138.874523371876,95.0736024477881,-18.7,       37P     28
135.357023371876,91.5561024477881,-18.7,135.357023371876,             37P     29
-3.14159265358979,3.14159265358979,0.,0.,0.;                          37P     30
126,1,1,0,0,1,0,-9.675,-9.675,5.,5.,1.,1.,91.5561024477881,           39P     31
-18.7,135.357023371876,91.5561024477881,40.,135.357023371876,         39P     32
-9.675,5.,0.,0.,0.;                                                   39P     33
126,8,2,0,1,0,0,-3.14159265358979,-3.14159265358979,                  41P     34
-3.14159265358979,-1.5707963267949,-1.5707963267949,0.,0.,            41P     35
1.5707963267949,1.5707963267949,3.14159265358979,                     41P     36
3.14159265358979,3.14159265358979,1.,0.707106781186564,1.,            41P     37
0.707106781186564,1.,0.707106781186564,1.,0.707106781186564,1.,       41P     38
91.5561024477881,40.,135.357023371876,88.0386024477881,40.,           41P     39
135.357023371876,88.0386024477881,40.,138.874523371876,               41P     40
88.0386024477881,40.,142.392023371876,91.5561024477881,40.,           41P     41
142.392023371876,95.0736024477881,40.,142.392023371876,               41P     42
95.0736024477881,40.,138.874523371876,95.0736024477881,40.,           41P     43
135.357023371876,91.5561024477881,40.,135.357023371876,               41P     44
-3.14159265358979,3.14159265358979,0.,0.,0.;                          41P     45
126,8,2,0,1,0,0,-3.14159265358979,-3.14159265358979,                  43P     46
-3.14159265358979,-1.5707963267949,-1.5707963267949,0.,0.,            43P     47
1.5707963267949,1.5707963267949,3.14159265358979,                     43P     48
3.14159265358979,3.14159265358979,1.,0.707106781186564,1.,            43P     49
0.707106781186564,1.,0.707106781186564,1.,0.707106781186564,1.,       43P     50
91.5561024477881,222.3,142.392023371876,88.0386024477881,222.3,       43P     51
142.392023371876,88.0386024477881,222.3,138.874523371876,             43P     52
88.0386024477881,222.3,135.357023371876,91.5561024477881,222.3,       43P     53
135.357023371876,95.0736024477881,222.3,135.357023371876,             43P     54
95.0736024477881,222.3,138.874523371876,95.0736024477881,222.3,       43P     55
142.392023371876,91.5561024477881,222.3,142.392023371876,             43P     56
-3.14159265358979,3.14159265358979,0.,0.,0.;                          43P     57
126,1,1,0,0,1,0,-9.675,-9.675,5.,5.,1.,1.,91.5561024477881,           45P     58
222.3,142.392023371876,91.5561024477881,163.6,142.392023371876,       45P     59
-9.675,5.,0.,0.,0.;                                                   45P     60
126,8,2,0,1,0,0,-3.14159265358979,-3.14159265358979,                  47P     61
-3.14159265358979,-1.5707963267949,-1.5707963267949,0.,0.,            47P     62
1.5707963267949,1.5707963267949,3.14159265358979,                     47P     63
3.14159265358979,3.14159265358979,1.,0.707106781186564,1.,            47P     64
0.707106781186564,1.,0.707106781186564,1.,0.707106781186564,1.,       47P     65
91.5561024477881,163.6,142.392023371876,88.0386024477881,163.6,       47P     66
142.392023371876,88.0386024477881,163.6,138.874523371876,             47P     67
88.0386024477881,163.6,135.357023371876,91.5561024477881,163.6,       47P     68
135.357023371876,95.0736024477881,163.6,135.357023371876,             47P     69
95.0736024477881,163.6,138.874523371876,95.0736024477881,163.6,       47P     70
142.392023371876,91.5561024477881,163.6,142.392023371876,             47P     71
-3.14159265358979,3.14159265358979,0.,0.,0.;                          47P     72
126,8,2,0,1,0,0,-3.14159265358979,-3.14159265358979,                  49P     73
-3.14159265358979,-1.5707963267949,-1.5707963267949,                  49P     74
-1.33226762955019D-15,-1.33226762955019D-15,1.5707963267949,          49P     75
1.5707963267949,3.14159265358979,3.14159265358979,                    49P     76
3.14159265358979,1.,0.707106781186548,1.,0.707106781186548,1.,        49P     77
0.707106781186548,1.,0.707106781186548,1.,91.5561024477881,           49P     78
-18.7,148.374523371875,82.0561024477881,-18.7,148.374523371876,       49P     79
82.0561024477881,-18.7,138.874523371876,82.0561024477881,-18.7,       49P     80
129.374523371876,91.5561024477881,-18.7,129.374523371875,             49P     81
101.056102447788,-18.7,129.374523371875,101.056102447788,-18.7,       49P     82
138.874523371875,101.056102447788,-18.7,148.374523371875,             49P     83
91.5561024477881,-18.7,148.374523371875,-3.14159265358979,            49P     84
3.14159265358979,0.,0.,0.;                                            49P     85
126,1,1,0,0,1,0,-12.6842105263158,-12.6842105263158,                  51P     86
12.6842105263158,12.6842105263158,1.,1.,91.5561024477881,-18.7,       51P     87
148.374523371875,91.556102447788,222.3,148.374523371876,              51P     88
-12.6842105263158,12.6842105263158,0.,0.,0.;                          51P     89
126,8,2,0,1,0,0,-3.14159265358979,-3.14159265358979,                  53P     90
-3.14159265358979,-1.5707963267949,-1.5707963267949,                  53P     91
-8.88178419700125D-16,-8.88178419700125D-16,1.5707963267949,          53P     92
1.5707963267949,3.14159265358979,3.14159265358979,                    53P     93
3.14159265358979,1.,0.707106781186548,1.,0.707106781186548,1.,        53P     94
0.707106781186548,1.,0.707106781186548,1.,91.556102447788,222.3,      53P     95
148.374523371876,101.056102447788,222.3,148.374523371876,             53P     96
101.056102447788,222.3,138.874523371876,101.056102447788,222.3,       53P     97
129.374523371876,91.5561024477881,222.3,129.374523371876,             53P     98
82.0561024477881,222.3,129.374523371876,82.056102447788,222.3,        53P     99
138.874523371876,82.056102447788,222.3,148.374523371876,              53P    100
91.556102447788,222.3,148.374523371876,-3.14159265358979,             53P    101
3.14159265358979,0.,0.,0.;                                            53P    102
128,1,8,1,2,0,1,0,0,1,-9.675,-9.675,5.,5.,-3.14159265358979,          55P    103
-3.14159265358979,-3.14159265358979,-1.5707963267949,                 55P    104
-1.5707963267949,0.,0.,1.5707963267949,1.5707963267949,               55P    105
3.14159265358979,3.14159265358979,3.14159265358979,1.,1.,             55P    106
0.707106781186548,0.707106781186548,1.,1.,0.707106781186548,          55P    107
0.707106781186548,1.,1.,0.707106781186548,0.707106781186548,1.,       55P    108
1.,0.707106781186548,0.707106781186548,1.,1.,91.5561024477881,        55P    109
-18.7,135.357023371876,91.5561024477881,40.,135.357023371876,         55P    110
88.0386024477881,-18.7,135.357023371876,88.0386024477881,40.,         55P    111
135.357023371876,88.0386024477881,-18.7,138.874523371876,             55P    112
88.0386024477881,40.,138.874523371876,88.0386024477881,-18.7,         55P    113
142.392023371876,88.0386024477881,40.,142.392023371876,               55P    114
91.5561024477881,-18.7,142.392023371876,91.5561024477881,40.,         55P    115
142.392023371876,95.0736024477881,-18.7,142.392023371876,             55P    116
95.0736024477881,40.,142.392023371876,95.0736024477881,-18.7,         55P    117
138.874523371876,95.0736024477881,40.,138.874523371876,               55P    118
95.0736024477881,-18.7,135.357023371876,95.0736024477881,40.,         55P    119
135.357023371876,91.5561024477881,-18.7,135.357023371876,             55P    120
91.5561024477881,40.,135.357023371876,-9.675,5.,                      55P    121
-3.14159265358979,3.14159265358979;                                   55P    122
128,1,1,1,1,0,0,1,0,0,-0.351749999999999,-0.351749999999999,          57P    123
0.351749999999999,0.351749999999999,-0.351749999999999,               57P    124
-0.351749999999999,0.351749999999999,0.351749999999999,1.,1.,1.,      57P    125
1.,88.0386024477881,40.,142.392023371876,88.0386024477881,40.,        57P    126
135.357023371876,95.0736024477881,40.,142.392023371876,               57P    127
95.0736024477881,40.,135.357023371876,-0.351749999999999,             57P    128
0.351749999999999,-0.351749999999999,0.351749999999999;               57P    129
128,1,8,1,2,0,1,0,0,1,-9.675,-9.675,5.,5.,-3.14159265358979,          59P    130
-3.14159265358979,-3.14159265358979,-1.5707963267949,                 59P    131
-1.5707963267949,0.,0.,1.5707963267949,1.5707963267949,               59P    132
3.14159265358979,3.14159265358979,3.14159265358979,1.,1.,             59P    133
0.707106781186548,0.707106781186548,1.,1.,0.707106781186548,          59P    134
0.707106781186548,1.,1.,0.707106781186548,0.707106781186548,1.,       59P    135
1.,0.707106781186548,0.707106781186548,1.,1.,91.5561024477881,        59P    136
222.3,142.392023371876,91.5561024477881,163.6,142.392023371876,       59P    137
88.0386024477881,222.3,142.392023371876,88.0386024477881,163.6,       59P    138
142.392023371876,88.0386024477881,222.3,138.874523371876,             59P    139
88.0386024477881,163.6,138.874523371876,88.0386024477881,222.3,       59P    140
135.357023371876,88.0386024477881,163.6,135.357023371876,             59P    141
91.5561024477881,222.3,135.357023371876,91.5561024477881,163.6,       59P    142
135.357023371876,95.0736024477881,222.3,135.357023371876,             59P    143
95.0736024477881,163.6,135.357023371876,95.0736024477881,222.3,       59P    144
138.874523371876,95.0736024477881,163.6,138.874523371876,             59P    145
95.0736024477881,222.3,142.392023371876,95.0736024477881,163.6,       59P    146
142.392023371876,91.5561024477881,222.3,142.392023371876,             59P    147
91.5561024477881,163.6,142.392023371876,-9.675,5.,                    59P    148
-3.14159265358979,3.14159265358979;                                   59P    149
128,1,1,1,1,0,0,1,0,0,-0.351749999999999,-0.351749999999999,          61P    150
0.351749999999999,0.351749999999999,-0.351749999999999,               61P    151
-0.351749999999999,0.351749999999999,0.351749999999999,1.,1.,1.,      61P    152
1.,88.0386024477881,163.6,135.357023371876,88.0386024477881,          61P    153
163.6,142.392023371876,95.0736024477881,163.6,135.357023371876,       61P    154
95.0736024477881,163.6,142.392023371876,-0.351749999999999,           61P    155
0.351749999999999,-0.351749999999999,0.351749999999999;               61P    156
128,1,8,1,2,0,1,0,0,1,-12.6842105263158,-12.6842105263158,            63P    157
12.6842105263158,12.6842105263158,-3.14159265358979,                  63P    158
-3.14159265358979,-3.14159265358979,-1.5707963267949,                 63P    159
-1.5707963267949,0.,0.,1.5707963267949,1.5707963267949,               63P    160
3.14159265358979,3.14159265358979,3.14159265358979,1.,1.,             63P    161
0.707106781186548,0.707106781186548,1.,1.,0.707106781186548,          63P    162
0.707106781186548,1.,1.,0.707106781186548,0.707106781186548,1.,       63P    163
1.,0.707106781186548,0.707106781186548,1.,1.,91.5561024477881,        63P    164
-18.7,148.374523371875,91.556102447788,222.3,148.374523371876,        63P    165
82.0561024477881,-18.7,148.374523371875,82.056102447788,222.3,        63P    166
148.374523371876,82.0561024477881,-18.7,138.874523371875,             63P    167
82.056102447788,222.3,138.874523371876,82.0561024477881,-18.7,        63P    168
129.374523371875,82.056102447788,222.3,129.374523371876,              63P    169
91.5561024477881,-18.7,129.374523371875,91.556102447788,222.3,        63P    170
129.374523371876,101.056102447788,-18.7,129.374523371875,             63P    171
101.056102447788,222.3,129.374523371876,101.056102447788,-18.7,       63P    172
138.874523371875,101.056102447788,222.3,138.874523371876,             63P    173
101.056102447788,-18.7,148.374523371875,101.056102447788,222.3,       63P    174
148.374523371876,91.5561024477881,-18.7,148.374523371875,             63P    175
91.556102447788,222.3,148.374523371876,-12.6842105263158,             63P    176
12.6842105263158,-3.14159265358979,3.14159265358979;                  63P    177
128,1,1,1,1,0,0,1,0,0,-0.949999999999998,-0.949999999999998,          65P    178
0.950000000000001,0.950000000000001,-0.950000000000001,               65P    179
-0.950000000000001,0.949999999999998,0.949999999999998,1.,1.,1.,      65P    180
1.,82.056102447788,222.3,129.374523371876,82.056102447788,222.3,      65P    181
148.374523371876,101.056102447788,222.3,129.374523371876,             65P    182
101.056102447788,222.3,148.374523371876,-0.949999999999998,           65P    183
0.950000000000001,-0.950000000000001,0.949999999999998;               65P    184
128,1,1,1,1,0,0,1,0,0,-0.949999999999998,-0.949999999999998,          67P    185
0.950000000000001,0.950000000000001,-0.949999999999998,               67P    186
-0.949999999999998,0.950000000000001,0.950000000000001,1.,1.,1.,      67P    187
1.,82.0561024477881,-18.7,148.374523371875,82.0561024477881,          67P    188
-18.7,129.374523371875,101.056102447788,-18.7,148.374523371875,       67P    189
101.056102447788,-18.7,129.374523371875,-0.949999999999998,           67P    190
0.950000000000001,-0.949999999999998,0.950000000000001;               67P    191
502,6,91.5561024477881,-18.7,135.357023371876,91.5561024477881,       69P    192
40.,135.357023371876,91.5561024477881,222.3,142.392023371876,         69P    193
91.5561024477881,163.6,142.392023371876,91.5561024477881,-18.7,       69P    194
148.374523371875,91.556102447788,222.3,148.374523371876;              69P    195
504,9,37,69,1,69,1,39,69,1,69,2,41,69,2,69,2,43,69,3,69,3,45,69,      71P    196
3,69,4,47,69,4,69,4,49,69,5,69,5,51,69,5,69,6,53,69,6,69,6;           71P    197
406,1,5HBody1;                                                        73P    198
314,96.078431372549,96.078431372549,96.4705882352941,15HAluminum      75P    199
 - Cast;                                                              75P    200
314,62.7450980392157,62.7450980392157,62.7450980392157,13HSteel       77P    201
- Satin;                                                              77P    202
S      1G      3D     78P    202                                        T      1
