                                                                        S      1
,,11HAluminumRod,11HAluminumRod,7Hunknown,7Hunknown,32,38,7,99,15,,1.,2,G      1
2HMM,1,0.08,15H20151025.133107,0.01,10000.,7Hunknown,7Hunknown,11,0,;   G      2
     186       1                                                00000000D      1
     186             -79       1       0                               0D      2
     514       2                                                00010000D      3
     514                       1       1                               0D      4
     510       3                                                00010000D      5
     510             -79       1       1                               0D      6
     510       4                                                00010000D      7
     510             -79       1       1                               0D      8
     510       5                                                00010000D      9
     510             -79       1       1                               0D     10
     510       6                                                00010000D     11
     510             -79       1       1                               0D     12
     510       7                                                00010000D     13
     510             -79       1       1                               0D     14
     510       8                                                00010000D     15
     510             -79       1       1                               0D     16
     510       9                                                00010000D     17
     510             -79       1       1                               0D     18
     508      10                                                00010000D     19
     508                       1       1                               0D     20
     508      11                                                00010000D     21
     508                       1       1                               0D     22
     508      12                                                00010000D     23
     508                       1       1                               0D     24
     508      13                                                00010000D     25
     508                       1       1                               0D     26
     508      14                                                00010000D     27
     508                       2       1                               0D     28
     508      16                                                00010000D     29
     508                       1       1                               0D     30
     508      17                                                00010000D     31
     508                       1       1                               0D     32
     508      18                                                00010000D     33
     508                       1       1                               0D     34
     508      19                                                00010000D     35
     508                       1       1                               0D     36
     126      20                                                00010000D     37
     126       0              15       0                               0D     38
     126      35                                                00010000D     39
     126       0               3       0                               0D     40
     126      38                                                00010000D     41
     126       0              12       0                               0D     42
     126      50                                                00010000D     43
     126       0              12       0                               0D     44
     126      62                                                00010000D     45
     126       0               3       0                               0D     46
     126      65                                                00010000D     47
     126       0              12       0                               0D     48
     126      77                                                00010000D     49
     126       0              10       0                               0D     50
     126      87                                                00010000D     51
     126       0              10       0                               0D     52
     126      97                                                00010000D     53
     126       0               4       0                               0D     54
     126     101                                                00010000D     55
     126       0               8       0                               0D     56
     126     109                                                00010000D     57
     126       0               8       0                               0D     58
     128     117                                                00010000D     59
     128       0     -79      23       0                               0D     60
     128     140                                                00010000D     61
     128       0     -79       7       0                               0D     62
     128     147                                                00010000D     63
     128       0     -79      20       0                               0D     64
     128     167                                                00010000D     65
     128       0     -79       7       0                               0D     66
     128     174                                                00010000D     67
     128       0     -79      24       0                               0D     68
     128     198                                                00010000D     69
     128       0     -79       7       0                               0D     70
     128     205                                                00010000D     71
     128       0     -79       9       0                               0D     72
     502     214                                                00010000D     73
     502                       7       1                               0D     74
     504     221                                                00010001D     75
     504                       3       1                               0D     76
     406     224                                                00000000D     77
     406                       1      15                               0D     78
     314     225                                                00000200D     79
     314                       2       0                               0D     80
     314     227                                                00000200D     81
     314                       2       0                               0D     82
186,3,1,0,0,1,77;                                                      1P      1
514,7,5,1,7,1,9,1,11,1,13,1,15,1,17,1;                                 3P      2
510,59,1,1,19;                                                         5P      3
510,61,1,1,21;                                                         7P      4
510,63,1,1,23;                                                         9P      5
510,65,1,1,25;                                                        11P      6
510,67,1,1,27;                                                        13P      7
510,69,2,1,29,31;                                                     15P      8
510,71,2,1,33,35;                                                     17P      9
508,4,0,75,1,0,0,0,75,2,1,0,0,75,3,1,0,0,75,2,0,0;                    19P     10
508,1,0,75,3,0,0;                                                     21P     11
508,4,0,75,4,0,0,0,75,5,1,0,0,75,6,1,0,0,75,5,0,0;                    23P     12
508,1,0,75,6,0,0;                                                     25P     13
508,6,0,75,7,0,0,0,75,8,0,0,0,75,9,1,0,0,75,10,0,0,0,75,11,0,0,       27P     14
0,75,9,0,0;                                                           27P     15
508,2,0,75,10,1,0,0,75,11,1,0;                                        29P     16
508,1,0,75,4,1,0;                                                     31P     17
508,2,0,75,7,1,0,0,75,8,1,0;                                          33P     18
508,1,0,75,1,1,0;                                                     35P     19
126,8,2,0,1,0,0,-3.14159265358979,-3.14159265358979,                  37P     20
-3.14159265358979,-1.5707963267949,-1.5707963267949,0.,0.,            37P     21
1.5707963267949,1.5707963267949,3.14159265358979,                     37P     22
3.14159265358979,3.14159265358979,1.,0.707106781186564,1.,            37P     23
0.707106781186564,1.,0.707106781186564,1.,0.707106781186564,1.,       37P     24
91.5561024477881,3.63081786858288D-14,135.357023371876,               37P     25
88.0386024477881,3.5527136788005D-14,135.357023371876,                37P     26
88.0386024477881,3.47460948901812D-14,138.874523371876,               37P     27
88.0386024477881,3.39650529923574D-14,142.392023371876,               37P     28
91.5561024477881,3.47460948901812D-14,142.392023371876,               37P     29
95.0736024477881,3.5527136788005D-14,142.392023371876,                37P     30
95.0736024477881,3.63081786858288D-14,138.874523371876,               37P     31
95.0736024477881,3.70892205836526D-14,135.357023371876,               37P     32
91.5561024477881,3.63081786858288D-14,135.357023371876,               37P     33
-3.14159265358979,3.14159265358979,0.,0.,0.;                          37P     34
126,1,1,0,0,1,0,-5.,-5.,5.,5.,1.,1.,91.5561024477881,                 39P     35
3.5527136788005D-14,135.357023371876,91.5561024477881,40.,            39P     36
135.357023371876,-5.,5.,0.,0.,0.;                                     39P     37
126,8,2,0,1,0,0,-3.14159265358979,-3.14159265358979,                  41P     38
-3.14159265358979,-1.5707963267949,-1.5707963267949,0.,0.,            41P     39
1.5707963267949,1.5707963267949,3.14159265358979,                     41P     40
3.14159265358979,3.14159265358979,1.,0.707106781186564,1.,            41P     41
0.707106781186564,1.,0.707106781186564,1.,0.707106781186564,1.,       41P     42
91.5561024477881,40.,135.357023371876,88.0386024477881,40.,           41P     43
135.357023371876,88.0386024477881,40.,138.874523371876,               41P     44
88.0386024477881,40.,142.392023371876,91.5561024477881,40.,           41P     45
142.392023371876,95.0736024477881,40.,142.392023371876,               41P     46
95.0736024477881,40.,138.874523371876,95.0736024477881,40.,           41P     47
135.357023371876,91.5561024477881,40.,135.357023371876,               41P     48
-3.14159265358979,3.14159265358979,0.,0.,0.;                          41P     49
126,8,2,0,1,0,0,-3.14159265358979,-3.14159265358979,                  43P     50
-3.14159265358979,-1.5707963267949,-1.5707963267949,0.,0.,            43P     51
1.5707963267949,1.5707963267949,3.14159265358979,                     43P     52
3.14159265358979,3.14159265358979,1.,0.707106781186564,1.,            43P     53
0.707106781186564,1.,0.707106781186564,1.,0.707106781186564,1.,       43P     54
91.5561024477881,203.6,142.392023371876,88.0386024477881,203.6,       43P     55
142.392023371876,88.0386024477881,203.6,138.874523371876,             43P     56
88.0386024477881,203.6,135.357023371876,91.5561024477881,203.6,       43P     57
135.357023371876,95.0736024477881,203.6,135.357023371876,             43P     58
95.0736024477881,203.6,138.874523371876,95.0736024477881,203.6,       43P     59
142.392023371876,91.5561024477881,203.6,142.392023371876,             43P     60
-3.14159265358979,3.14159265358979,0.,0.,0.;                          43P     61
126,1,1,0,0,1,0,-5.,-5.,5.,5.,1.,1.,91.5561024477881,203.6,           45P     62
142.392023371876,91.5561024477881,163.6,142.392023371876,-5.,5.,      45P     63
0.,0.,0.;                                                             45P     64
126,8,2,0,1,0,0,-3.14159265358979,-3.14159265358979,                  47P     65
-3.14159265358979,-1.5707963267949,-1.5707963267949,0.,0.,            47P     66
1.5707963267949,1.5707963267949,3.14159265358979,                     47P     67
3.14159265358979,3.14159265358979,1.,0.707106781186564,1.,            47P     68
0.707106781186564,1.,0.707106781186564,1.,0.707106781186564,1.,       47P     69
91.5561024477881,163.6,142.392023371876,88.0386024477881,163.6,       47P     70
142.392023371876,88.0386024477881,163.6,138.874523371876,             47P     71
88.0386024477881,163.6,135.357023371876,91.5561024477881,163.6,       47P     72
135.357023371876,95.0736024477881,163.6,135.357023371876,             47P     73
95.0736024477881,163.6,138.874523371876,95.0736024477881,163.6,       47P     74
142.392023371876,91.5561024477881,163.6,142.392023371876,             47P     75
-3.14159265358979,3.14159265358979,0.,0.,0.;                          47P     76
126,4,2,0,0,0,0,-2.22044604925031D-16,-2.22044604925031D-16,          49P     77
-2.22044604925031D-16,1.5707963267949,1.5707963267949,                49P     78
3.14159265358979,3.14159265358979,3.14159265358979,1.,                49P     79
0.707106781186553,1.,0.707106781186553,1.,91.5561024477881,           49P     80
3.76365605347928D-14,129.374523371876,101.056102447788,               49P     81
3.97459842815806D-14,129.374523371876,101.056102447788,               49P     82
3.76365605347928D-14,138.874523371876,101.056102447788,               49P     83
3.5527136788005D-14,148.374523371876,91.5561024477881,                49P     84
3.34177130412172D-14,148.374523371876,-2.22044604925031D-16,          49P     85
3.14159265358979,0.,0.,0.;                                            49P     86
126,4,2,0,0,0,0,3.14159265358979,3.14159265358979,                    51P     87
3.14159265358979,4.71238898038469,4.71238898038469,                   51P     88
6.28318530717959,6.28318530717959,6.28318530717959,1.,                51P     89
0.707106781186553,1.,0.707106781186553,1.,91.5561024477881,           51P     90
3.34177130412172D-14,148.374523371876,82.0561024477881,               51P     91
3.13082892944294D-14,148.374523371876,82.0561024477881,               51P     92
3.34177130412172D-14,138.874523371876,82.0561024477881,               51P     93
3.5527136788005D-14,129.374523371876,91.5561024477881,                51P     94
3.76365605347928D-14,129.374523371876,3.14159265358979,               51P     95
6.28318530717959,0.,0.,0.;                                            51P     96
126,1,1,0,0,1,0,-10.7157894736842,-10.7157894736842,                  53P     97
10.7157894736842,10.7157894736842,1.,1.,91.5561024477881,             53P     98
3.5527136788005D-14,148.374523371876,91.5561024477881,203.6,          53P     99
148.374523371876,-10.7157894736842,10.7157894736842,0.,0.,0.;         53P    100
126,4,2,0,0,0,0,2.22044604925031D-16,2.22044604925031D-16,            55P    101
2.22044604925031D-16,1.5707963267949,1.5707963267949,                 55P    102
3.14159265358979,3.14159265358979,3.14159265358979,1.,                55P    103
0.707106781186553,1.,0.707106781186553,1.,91.5561024477881,           55P    104
203.6,129.374523371876,82.0561024477881,203.6,129.374523371876,       55P    105
82.0561024477881,203.6,138.874523371876,82.0561024477881,203.6,       55P    106
148.374523371876,91.5561024477881,203.6,148.374523371876,             55P    107
2.22044604925031D-16,3.14159265358979,0.,0.,0.;                       55P    108
126,4,2,0,0,0,0,3.14159265358979,3.14159265358979,                    57P    109
3.14159265358979,4.71238898038469,4.71238898038469,                   57P    110
6.28318530717959,6.28318530717959,6.28318530717959,1.,                57P    111
0.707106781186553,1.,0.707106781186553,1.,91.5561024477881,           57P    112
203.6,148.374523371876,101.056102447788,203.6,148.374523371876,       57P    113
101.056102447788,203.6,138.874523371876,101.056102447788,203.6,       57P    114
129.374523371876,91.5561024477881,203.6,129.374523371876,             57P    115
3.14159265358979,6.28318530717959,0.,0.,0.;                           57P    116
128,1,8,1,2,0,1,0,0,1,-5.,-5.,5.,5.,-3.14159265358979,                59P    117
-3.14159265358979,-3.14159265358979,-1.5707963267949,                 59P    118
-1.5707963267949,0.,0.,1.5707963267949,1.5707963267949,               59P    119
3.14159265358979,3.14159265358979,3.14159265358979,1.,1.,             59P    120
0.707106781186548,0.707106781186548,1.,1.,0.707106781186548,          59P    121
0.707106781186548,1.,1.,0.707106781186548,0.707106781186548,1.,       59P    122
1.,0.707106781186548,0.707106781186548,1.,1.,91.5561024477881,        59P    123
3.5527136788005D-14,135.357023371876,91.5561024477881,40.,            59P    124
135.357023371876,88.0386024477881,3.47460948901812D-14,               59P    125
135.357023371876,88.0386024477881,40.,135.357023371876,               59P    126
88.0386024477881,3.47460948901812D-14,138.874523371876,               59P    127
88.0386024477881,40.,138.874523371876,88.0386024477881,               59P    128
3.47460948901812D-14,142.392023371876,88.0386024477881,40.,           59P    129
142.392023371876,91.5561024477881,3.5527136788005D-14,                59P    130
142.392023371876,91.5561024477881,40.,142.392023371876,               59P    131
95.0736024477881,3.63081786858288D-14,142.392023371876,               59P    132
95.0736024477881,40.,142.392023371876,95.0736024477881,               59P    133
3.63081786858288D-14,138.874523371876,95.0736024477881,40.,           59P    134
138.874523371876,95.0736024477881,3.63081786858288D-14,               59P    135
135.357023371876,95.0736024477881,40.,135.357023371876,               59P    136
91.5561024477881,3.5527136788005D-14,135.357023371876,                59P    137
91.5561024477881,40.,135.357023371876,-5.,5.,-3.14159265358979,       59P    138
3.14159265358979;                                                     59P    139
128,1,1,1,1,0,0,1,0,0,-0.351749999999999,-0.351749999999999,          61P    140
0.351749999999999,0.351749999999999,-0.351749999999999,               61P    141
-0.351749999999999,0.351749999999999,0.351749999999999,1.,1.,1.,      61P    142
1.,88.0386024477881,40.,142.392023371876,88.0386024477881,40.,        61P    143
135.357023371876,95.0736024477881,40.,142.392023371876,               61P    144
95.0736024477881,40.,135.357023371876,-0.351749999999999,             61P    145
0.351749999999999,-0.351749999999999,0.351749999999999;               61P    146
128,1,8,1,2,0,1,0,0,1,-5.,-5.,5.,5.,-3.14159265358979,                63P    147
-3.14159265358979,-3.14159265358979,-1.5707963267949,                 63P    148
-1.5707963267949,0.,0.,1.5707963267949,1.5707963267949,               63P    149
3.14159265358979,3.14159265358979,3.14159265358979,1.,1.,             63P    150
0.707106781186548,0.707106781186548,1.,1.,0.707106781186548,          63P    151
0.707106781186548,1.,1.,0.707106781186548,0.707106781186548,1.,       63P    152
1.,0.707106781186548,0.707106781186548,1.,1.,91.5561024477881,        63P    153
203.6,142.392023371876,91.5561024477881,163.6,142.392023371876,       63P    154
88.0386024477881,203.6,142.392023371876,88.0386024477881,163.6,       63P    155
142.392023371876,88.0386024477881,203.6,138.874523371876,             63P    156
88.0386024477881,163.6,138.874523371876,88.0386024477881,203.6,       63P    157
135.357023371876,88.0386024477881,163.6,135.357023371876,             63P    158
91.5561024477881,203.6,135.357023371876,91.5561024477881,163.6,       63P    159
135.357023371876,95.0736024477881,203.6,135.357023371876,             63P    160
95.0736024477881,163.6,135.357023371876,95.0736024477881,203.6,       63P    161
138.874523371876,95.0736024477881,163.6,138.874523371876,             63P    162
95.0736024477881,203.6,142.392023371876,95.0736024477881,163.6,       63P    163
142.392023371876,91.5561024477881,203.6,142.392023371876,             63P    164
91.5561024477881,163.6,142.392023371876,-5.,5.,                       63P    165
-3.14159265358979,3.14159265358979;                                   63P    166
128,1,1,1,1,0,0,1,0,0,-0.351749999999999,-0.351749999999999,          65P    167
0.351749999999999,0.351749999999999,-0.351749999999999,               65P    168
-0.351749999999999,0.351749999999999,0.351749999999999,1.,1.,1.,      65P    169
1.,88.0386024477881,163.6,135.357023371876,88.0386024477881,          65P    170
163.6,142.392023371876,95.0736024477881,163.6,135.357023371876,       65P    171
95.0736024477881,163.6,142.392023371876,-0.351749999999999,           65P    172
0.351749999999999,-0.351749999999999,0.351749999999999;               65P    173
128,1,8,1,2,0,1,0,0,1,-10.7157894736842,-10.7157894736842,            67P    174
10.7157894736842,10.7157894736842,-3.14159265358979,                  67P    175
-3.14159265358979,-3.14159265358979,-1.5707963267949,                 67P    176
-1.5707963267949,0.,0.,1.5707963267949,1.5707963267949,               67P    177
3.14159265358979,3.14159265358979,3.14159265358979,1.,1.,             67P    178
0.707106781186548,0.707106781186548,1.,1.,0.707106781186548,          67P    179
0.707106781186548,1.,1.,0.707106781186548,0.707106781186548,1.,       67P    180
1.,0.707106781186548,0.707106781186548,1.,1.,91.5561024477881,        67P    181
3.5527136788005D-14,148.374523371876,91.5561024477881,203.6,          67P    182
148.374523371876,82.0561024477881,3.34177130412172D-14,               67P    183
148.374523371876,82.0561024477881,203.6,148.374523371876,             67P    184
82.0561024477881,3.34177130412172D-14,138.874523371876,               67P    185
82.0561024477881,203.6,138.874523371876,82.0561024477881,             67P    186
3.34177130412172D-14,129.374523371876,82.0561024477881,203.6,         67P    187
129.374523371876,91.5561024477881,3.5527136788005D-14,                67P    188
129.374523371876,91.5561024477881,203.6,129.374523371876,             67P    189
101.056102447788,3.76365605347928D-14,129.374523371876,               67P    190
101.056102447788,203.6,129.374523371876,101.056102447788,             67P    191
3.76365605347928D-14,138.874523371876,101.056102447788,203.6,         67P    192
138.874523371876,101.056102447788,3.76365605347928D-14,               67P    193
148.374523371876,101.056102447788,203.6,148.374523371876,             67P    194
91.5561024477881,3.5527136788005D-14,148.374523371876,                67P    195
91.5561024477881,203.6,148.374523371876,-10.7157894736842,            67P    196
10.7157894736842,-3.14159265358979,3.14159265358979;                  67P    197
128,1,1,1,1,0,0,1,0,0,-0.949999999999999,-0.949999999999999,          69P    198
0.949999999999999,0.949999999999999,-0.949999999999999,               69P    199
-0.949999999999999,0.949999999999999,0.949999999999999,1.,1.,1.,      69P    200
1.,82.0561024477881,203.6,129.374523371876,82.0561024477881,          69P    201
203.6,148.374523371876,101.056102447788,203.6,129.374523371876,       69P    202
101.056102447788,203.6,148.374523371876,-0.949999999999999,           69P    203
0.949999999999999,-0.949999999999999,0.949999999999999;               69P    204
128,1,1,1,1,0,0,1,0,0,-0.949999999999999,-0.949999999999999,          71P    205
0.949999999999999,0.949999999999999,-0.949999999999999,               71P    206
-0.949999999999999,0.949999999999999,0.949999999999999,1.,1.,1.,      71P    207
1.,82.0561024477881,3.13082892944294D-14,148.374523371876,            71P    208
82.0561024477881,3.5527136788005D-14,129.374523371876,                71P    209
101.056102447788,3.5527136788005D-14,148.374523371876,                71P    210
101.056102447788,3.97459842815806D-14,129.374523371876,               71P    211
-0.949999999999999,0.949999999999999,-0.949999999999999,              71P    212
0.949999999999999;                                                    71P    213
502,8,91.5561024477881,3.63081786858288D-14,135.357023371876,         73P    214
91.5561024477881,40.,135.357023371876,91.5561024477881,203.6,         73P    215
142.392023371876,91.5561024477881,163.6,142.392023371876,             73P    216
91.5561024477881,3.5527136788005D-14,129.374523371875,                73P    217
91.5561024477881,3.5527136788005D-14,148.374523371876,                73P    218
91.5561024477881,203.6,148.374523371876,91.5561024477881,203.6,       73P    219
129.374523371876;                                                     73P    220
504,11,37,73,1,73,1,39,73,1,73,2,41,73,2,73,2,43,73,3,73,3,45,        75P    221
73,3,73,4,47,73,4,73,4,49,73,5,73,6,51,73,6,73,5,53,73,6,73,7,        75P    222
55,73,8,73,7,57,73,7,73,8;                                            75P    223
406,1,5HBody1;                                                        77P    224
314,96.078431372549,96.078431372549,96.4705882352941,15HAluminum      79P    225
 - Cast;                                                              79P    226
314,62.7450980392157,62.7450980392157,62.7450980392157,13HSteel       81P    227
- Satin;                                                              81P    228
S      1G      2D     82P    228                                        T      1
