                                                                        S      1
,,13HBearingSpacer,13HBearingSpacer,7Hunknown,7Hunknown,32,38,7,99,15,, G      1
1.,2,2HMM,1,0.08,15H20150904.145024,0.01,10000.,7Hunknown,7Hunknown,11, G      2
0,;                                                                     G      3
     186       1                                                00000000D      1
     186             -53       1       0                               0D      2
     514       2                                                00010000D      3
     514                       1       1                               0D      4
     510       3                                                00010000D      5
     510             -53       1       1                               0D      6
     510       4                                                00010000D      7
     510             -53       1       1                               0D      8
     510       5                                                00010000D      9
     510             -53       1       1                               0D     10
     510       6                                                00010000D     11
     510             -53       1       1                               0D     12
     508       7                                                00010000D     13
     508                       1       1                               0D     14
     508       8                                                00010000D     15
     508                       1       1                               0D     16
     508       9                                                00010000D     17
     508                       1       1                               0D     18
     508      10                                                00010000D     19
     508                       1       1                               0D     20
     508      11                                                00010000D     21
     508                       1       1                               0D     22
     508      12                                                00010000D     23
     508                       1       1                               0D     24
     126      13                                                00010000D     25
     126       0               7       0                               0D     26
     126      20                                                00010000D     27
     126       0               8       0                               0D     28
     126      28                                                00010000D     29
     126       0               4       0                               0D     30
     126      32                                                00010000D     31
     126       0              15       0                               0D     32
     126      47                                                00010000D     33
     126       0               8       0                               0D     34
     126      55                                                00010000D     35
     126       0               3       0                               0D     36
     126      58                                                00010000D     37
     126       0              11       0                               0D     38
     128      69                                                00010000D     39
     128       0     -53      24       0                               0D     40
     128      93                                                00010000D     41
     128       0     -53      16       0                               0D     42
     128     109                                                00010000D     43
     128       0     -53       4       0                               0D     44
     128     113                                                00010000D     45
     128       0     -53       3       0                               0D     46
     502     116                                                00010000D     47
     502                       3       1                               0D     48
     504     119                                                00010001D     49
     504                       2       1                               0D     50
     406     121                                                00000000D     51
     406                       1      15                               0D     52
     314     122                                                00000200D     53
     314                       2       0                               0D     54
186,3,1,0,0,1,51;                                                      1P      1
514,4,5,1,7,1,9,1,11,1;                                                3P      2
510,39,1,1,13;                                                         5P      3
510,41,1,1,15;                                                         7P      4
510,43,2,1,17,19;                                                      9P      5
510,45,2,1,21,23;                                                     11P      6
508,5,0,49,1,0,0,0,49,2,0,0,0,49,3,1,0,0,49,4,0,0,0,49,3,0,0;         13P      7
508,4,0,49,5,0,0,0,49,6,1,0,0,49,7,0,0,0,49,6,0,0;                    15P      8
508,1,0,49,7,1,0;                                                     17P      9
508,1,0,49,4,1,0;                                                     19P     10
508,1,0,49,5,1,0;                                                     21P     11
508,2,0,49,1,1,0,0,49,2,1,0;                                          23P     12
126,4,2,0,0,0,0,0.,0.,0.,1.5707963267949,1.5707963267949,             25P     13
3.14159265358979,3.14159265358979,3.14159265358979,1.,                25P     14
0.707106781186545,1.,0.707106781186545,1.,130.000001937151,10.,       25P     15
-94.2500013411045,134.250001937151,10.,-94.2500013411045,             25P     16
134.250001937151,10.,-90.0000013411045,134.250001937151,10.,          25P     17
-85.7500013411045,130.000001937151,10.,-85.7500013411045,0.,          25P     18
3.14159265358979,0.,0.,0.;                                            25P     19
126,4,2,0,0,0,0,3.14159265358979,3.14159265358979,                    27P     20
3.14159265358979,4.71238898038469,4.71238898038469,                   27P     21
6.28318530717959,6.28318530717959,6.28318530717959,1.,                27P     22
0.707106781186545,1.,0.707106781186545,1.,130.000001937151,10.,       27P     23
-85.7500013411045,125.750001937151,10.,-85.7500013411045,             27P     24
125.750001937151,10.,-90.0000013411045,125.750001937151,10.,          27P     25
-94.2500013411045,130.000001937151,10.,-94.2500013411045,             27P     26
3.14159265358979,6.28318530717959,0.,0.,0.;                           27P     27
126,1,1,0,0,1,0,-2.70588235294118,-2.70588235294118,                  29P     28
-0.352941176470589,-0.352941176470589,1.,1.,130.000001937151,         29P     29
10.,-85.7500013411045,130.000001937151,-8.32667268468867D-16,         29P     30
-85.7500013411045,-2.70588235294118,-0.352941176470589,0.,0.,0.;      29P     31
126,8,2,0,1,0,0,-3.14159265358979,-3.14159265358979,                  31P     32
-3.14159265358979,-1.5707963267949,-1.5707963267949,0.,0.,            31P     33
1.5707963267949,1.5707963267949,3.14159265358979,                     31P     34
3.14159265358979,3.14159265358979,1.,0.707106781186545,1.,            31P     35
0.707106781186545,1.,0.707106781186545,1.,0.707106781186545,1.,       31P     36
130.000001937151,-9.43689570931383D-16,-85.7500013411045,             31P     37
134.250001937151,-9.43689570931383D-16,-85.7500013411045,             31P     38
134.250001937151,5.77843206214929D-32,-90.0000013411045,              31P     39
134.250001937151,9.43689570931384D-16,-94.2500013411045,              31P     40
130.000001937151,9.43689570931383D-16,-94.2500013411045,              31P     41
125.750001937151,9.43689570931384D-16,-94.2500013411045,              31P     42
125.750001937151,5.77843206214929D-32,-90.0000013411045,              31P     43
125.750001937151,-9.43689570931383D-16,-85.7500013411045,             31P     44
130.000001937151,-9.43689570931383D-16,-85.7500013411045,             31P     45
-3.14159265358979,3.14159265358979,0.,0.,0.;                          31P     46
126,8,2,0,1,0,0,-3.14159265358979,-3.14159265358979,                  33P     47
-3.14159265358979,-1.5707963267949,-1.5707963267949,0.,0.,            33P     48
1.5707963267949,1.5707963267949,3.14159265358979,                     33P     49
3.14159265358979,3.14159265358979,1.,0.707106781186539,1.,            33P     50
0.707106781186539,1.,0.707106781186539,1.,0.707106781186539,1.,       33P     51
125.,10.,-90.,125.,10.,-85.,130.,10.,-85.,135.,10.,-85.,135.,         33P     52
10.,-90.,135.,10.,-95.,130.,10.,-95.,125.,10.,-95.,125.,10.,          33P     53
-90.,-3.14159265358979,3.14159265358979,0.,0.,0.;                     33P     54
126,1,1,0,0,1,0,-0.909090909090909,-0.909090909090909,                35P     55
0.909090909090909,0.909090909090909,1.,1.,125.,10.,-90.,125.,0.,      35P     56
-90.,-0.909090909090909,0.909090909090909,0.,0.,0.;                   35P     57
126,8,2,0,1,0,0,-3.14159265358979,-3.14159265358979,                  37P     58
-3.14159265358979,-1.5707963267949,-1.5707963267949,0.,0.,            37P     59
1.5707963267949,1.5707963267949,3.14159265358979,                     37P     60
3.14159265358979,3.14159265358979,1.,0.707106781186539,1.,            37P     61
0.707106781186539,1.,0.707106781186539,1.,0.707106781186539,1.,       37P     62
125.,1.35963107344689D-31,-90.,125.,1.11022302462516D-15,-95.,        37P     63
130.,1.11022302462516D-15,-95.,135.,1.11022302462516D-15,-95.,        37P     64
135.,0.,-90.,135.,-1.11022302462516D-15,-85.,130.,                    37P     65
-1.11022302462516D-15,-85.,125.,-1.11022302462516D-15,-85.,125.,      37P     66
-1.35963107344689D-31,-90.,-3.14159265358979,3.14159265358979,        37P     67
0.,0.,0.;                                                             37P     68
128,1,8,1,2,0,1,0,0,1,-2.70588235294118,-2.70588235294118,            39P     69
-0.352941176470589,-0.352941176470589,-3.14159265358979,              39P     70
-3.14159265358979,-3.14159265358979,-1.5707963267949,                 39P     71
-1.5707963267949,0.,0.,1.5707963267949,1.5707963267949,               39P     72
3.14159265358979,3.14159265358979,3.14159265358979,1.,1.,             39P     73
0.707106781186548,0.707106781186548,1.,1.,0.707106781186548,          39P     74
0.707106781186548,1.,1.,0.707106781186548,0.707106781186548,1.,       39P     75
1.,0.707106781186548,0.707106781186548,1.,1.,130.000001937151,        39P     76
10.,-85.7500013411045,130.000001937151,-8.32667268468867D-16,         39P     77
-85.7500013411045,125.750001937151,10.,-85.7500013411045,             39P     78
125.750001937151,-8.32667268468867D-16,-85.7500013411045,             39P     79
125.750001937151,10.,-90.0000013411045,125.750001937151,0.,           39P     80
-90.0000013411045,125.750001937151,10.,-94.2500013411045,             39P     81
125.750001937151,8.32667268468867D-16,-94.2500013411045,              39P     82
130.000001937151,10.,-94.2500013411045,130.000001937151,              39P     83
8.32667268468867D-16,-94.2500013411045,134.250001937151,10.,          39P     84
-94.2500013411045,134.250001937151,8.32667268468867D-16,              39P     85
-94.2500013411045,134.250001937151,10.,-90.0000013411045,             39P     86
134.250001937151,0.,-90.0000013411045,134.250001937151,10.,           39P     87
-85.7500013411045,134.250001937151,-8.32667268468867D-16,             39P     88
-85.7500013411045,130.000001937151,10.,-85.7500013411045,             39P     89
130.000001937151,-8.32667268468867D-16,-85.7500013411045,             39P     90
-2.70588235294118,-0.352941176470589,-3.14159265358979,               39P     91
3.14159265358979;                                                     39P     92
128,1,8,1,2,0,1,0,0,1,-0.909090909090909,-0.909090909090909,          41P     93
0.909090909090909,0.909090909090909,-3.14159265358979,                41P     94
-3.14159265358979,-3.14159265358979,-1.5707963267949,                 41P     95
-1.5707963267949,0.,0.,1.5707963267949,1.5707963267949,               41P     96
3.14159265358979,3.14159265358979,3.14159265358979,1.,1.,             41P     97
0.707106781186548,0.707106781186548,1.,1.,0.707106781186548,          41P     98
0.707106781186548,1.,1.,0.707106781186548,0.707106781186548,1.,       41P     99
1.,0.707106781186548,0.707106781186548,1.,1.,125.,10.,-90.,125.,      41P    100
0.,-90.,125.,10.,-85.,125.,-1.11022302462516D-15,-85.,130.,10.,       41P    101
-85.,130.,-1.11022302462516D-15,-85.,135.,10.,-85.,135.,              41P    102
-1.11022302462516D-15,-85.,135.,10.,-90.,135.,0.,-90.,135.,10.,       41P    103
-95.,135.,1.11022302462516D-15,-95.,130.,10.,-95.,130.,               41P    104
1.11022302462516D-15,-95.,125.,10.,-95.,125.,                         41P    105
1.11022302462516D-15,-95.,125.,10.,-90.,125.,0.,-90.,                 41P    106
-0.909090909090909,0.909090909090909,-3.14159265358979,               41P    107
3.14159265358979;                                                     41P    108
128,1,1,1,1,0,0,1,0,0,-0.5,-0.5,0.5,0.5,-0.5,-0.5,0.5,0.5,1.,1.,      43P    109
1.,1.,135.,-1.11022302462516D-15,-85.,125.,                           43P    110
-1.11022302462516D-15,-85.,135.,1.11022302462516D-15,-95.,125.,       43P    111
1.11022302462516D-15,-95.,-0.5,0.5,-0.5,0.5;                          43P    112
128,1,1,1,1,0,0,1,0,0,-0.5,-0.5,0.5,0.5,-0.5,-0.5,0.5,0.5,1.,1.,      45P    113
1.,1.,125.,10.,-85.,135.,10.,-85.,125.,10.,-95.,135.,10.,-95.,        45P    114
-0.5,0.5,-0.5,0.5;                                                    45P    115
502,5,130.000001937151,10.,-94.2500013411045,130.000001937151,        47P    116
10.,-85.7500013411045,130.000001937151,-9.43689570931383D-16,         47P    117
-85.7500013411045,125.,10.,-90.,125.,-1.35963107344689D-31,-90.;      47P    118
504,7,25,47,1,47,2,27,47,2,47,1,29,47,2,47,3,31,47,3,47,3,33,47,      49P    119
4,47,4,35,47,4,47,5,37,47,5,47,5;                                     49P    120
406,1,14HBearing Spacer;                                              51P    121
314,62.7450980392157,62.7450980392157,62.7450980392157,13HSteel       53P    122
- Satin;                                                              53P    123
S      1G      3D     54P    123                                        T      1
