                                                                        S      1
,,10HCornerHalf,10HCornerHalf,7Hunknown,7Hunknown,32,38,7,99,15,,1.,2,2HG      1
MM,1,0.08,15H20151025.133021,0.01,10000.,7Hunknown,7Hunknown,11,0,;     G      2
     186       1                                                00000000D      1
     186            -179       1       0                               0D      2
     514       2                                                00010000D      3
     514                       2       1                               0D      4
     510       4                                                00010000D      5
     510            -179       1       1                               0D      6
     510       5                                                00010000D      7
     510            -179       1       1                               0D      8
     510       6                                                00010000D      9
     510            -179       1       1                               0D     10
     510       7                                                00010000D     11
     510            -179       1       1                               0D     12
     510       8                                                00010000D     13
     510            -179       1       1                               0D     14
     510       9                                                00010000D     15
     510            -179       1       1                               0D     16
     510      10                                                00010000D     17
     510            -179       1       1                               0D     18
     510      11                                                00010000D     19
     510            -179       1       1                               0D     20
     510      12                                                00010000D     21
     510            -179       1       1                               0D     22
     510      13                                                00010000D     23
     510            -179       1       1                               0D     24
     510      14                                                00010000D     25
     510            -179       1       1                               0D     26
     510      15                                                00010000D     27
     510            -179       1       1                               0D     28
     510      16                                                00010000D     29
     510            -179       1       1                               0D     30
     510      17                                                00010000D     31
     510            -179       1       1                               0D     32
     508      18                                                00010000D     33
     508                       3       1                               0D     34
     508      21                                                00010000D     35
     508                       1       1                               0D     36
     508      22                                                00010000D     37
     508                       1       1                               0D     38
     508      23                                                00010000D     39
     508                       1       1                               0D     40
     508      24                                                00010000D     41
     508                       1       1                               0D     42
     508      25                                                00010000D     43
     508                       1       1                               0D     44
     508      26                                                00010000D     45
     508                       1       1                               0D     46
     508      27                                                00010000D     47
     508                       1       1                               0D     48
     508      28                                                00010000D     49
     508                       2       1                               0D     50
     508      30                                                00010000D     51
     508                       1       1                               0D     52
     508      31                                                00010000D     53
     508                       1       1                               0D     54
     508      32                                                00010000D     55
     508                       1       1                               0D     56
     508      33                                                00010000D     57
     508                       1       1                               0D     58
     508      34                                                00010000D     59
     508                       1       1                               0D     60
     508      35                                                00010000D     61
     508                       1       1                               0D     62
     508      36                                                00010000D     63
     508                       1       1                               0D     64
     508      37                                                00010000D     65
     508                       3       1                               0D     66
     508      40                                                00010000D     67
     508                       1       1                               0D     68
     126      41                                                00010000D     69
     126       0               6       0                               0D     70
     126      47                                                00010000D     71
     126       0               4       0                               0D     72
     126      51                                                00010000D     73
     126       0               5       0                               0D     74
     126      56                                                00010000D     75
     126       0               4       0                               0D     76
     126      60                                                00010000D     77
     126       0               4       0                               0D     78
     126      64                                                00010000D     79
     126       0               5       0                               0D     80
     126      69                                                00010000D     81
     126       0               3       0                               0D     82
     126      72                                                00010000D     83
     126       0               4       0                               0D     84
     126      76                                                00010000D     85
     126       0               5       0                               0D     86
     126      81                                                00010000D     87
     126       0               4       0                               0D     88
     126      85                                                00010000D     89
     126       0              16       0                               0D     90
     126     101                                                00010000D     91
     126       0               3       0                               0D     92
     126     104                                                00010000D     93
     126       0               3       0                               0D     94
     126     107                                                00010000D     95
     126       0               3       0                               0D     96
     126     110                                                00010000D     97
     126       0               2       0                               0D     98
     126     112                                                00010000D     99
     126       0               3       0                               0D    100
     126     115                                                00010000D    101
     126       0               4       0                               0D    102
     126     119                                                00010000D    103
     126       0               3       0                               0D    104
     126     122                                                00010000D    105
     126       0               9       0                               0D    106
     126     131                                                00010000D    107
     126       0               9       0                               0D    108
     126     140                                                00010000D    109
     126       0               3       0                               0D    110
     126     143                                                00010000D    111
     126       0               3       0                               0D    112
     126     146                                                00010000D    113
     126       0               4       0                               0D    114
     126     150                                                00010000D    115
     126       0               4       0                               0D    116
     126     154                                                00010000D    117
     126       0               4       0                               0D    118
     126     158                                                00010000D    119
     126       0              36       0                               0D    120
     126     194                                                00010000D    121
     126       0              15       0                               0D    122
     126     209                                                00010000D    123
     126       0              12       0                               0D    124
     126     221                                                00010000D    125
     126       0               4       0                               0D    126
     126     225                                                00010000D    127
     126       0               4       0                               0D    128
     126     229                                                00010000D    129
     126       0               3       0                               0D    130
     126     232                                                00010000D    131
     126       0               4       0                               0D    132
     126     236                                                00010000D    133
     126       0               3       0                               0D    134
     126     239                                                00010000D    135
     126       0               5       0                               0D    136
     126     244                                                00010000D    137
     126       0               3       0                               0D    138
     126     247                                                00010000D    139
     126       0               3       0                               0D    140
     126     250                                                00010000D    141
     126       0               3       0                               0D    142
     126     253                                                00010000D    143
     126       0               4       0                               0D    144
     128     257                                                00010000D    145
     128       0    -179       6       0                               0D    146
     128     263                                                00010000D    147
     128       0    -179       6       0                               0D    148
     128     269                                                00010000D    149
     128       0    -179       5       0                               0D    150
     128     274                                                00010000D    151
     128       0    -179       7       0                               0D    152
     128     281                                                00010000D    153
     128       0    -179       7       0                               0D    154
     128     288                                                00010000D    155
     128       0    -179       8       0                               0D    156
     128     296                                                00010000D    157
     128       0    -179      22       0                               0D    158
     128     318                                                00010000D    159
     128       0    -179      24       0                               0D    160
     128     342                                                00010000D    161
     128       0    -179       7       0                               0D    162
     128     349                                                00010000D    163
     128       0    -179       7       0                               0D    164
     128     356                                                00010000D    165
     128       0    -179       9       0                               0D    166
     128     365                                                00010000D    167
     128       0    -179       7       0                               0D    168
     128     372                                                00010000D    169
     128       0    -179       7       0                               0D    170
     128     379                                                00010000D    171
     128       0    -179       4       0                               0D    172
     502     383                                                00010000D    173
     502                      18       1                               0D    174
     504     401                                                00010001D    175
     504                      11       1                               0D    176
     406     412                                                00000000D    177
     406                       1      15                               0D    178
     314     413                                                00000200D    179
     314                       2       0                               0D    180
     314     415                                                00000200D    181
     314                       2       0                               0D    182
186,3,1,0,0,1,177;                                                     1P      1
514,14,5,1,7,1,9,1,11,1,13,1,15,1,17,1,19,1,21,1,23,1,25,1,27,1,       3P      2
29,1,31,1;                                                             3P      3
510,145,2,1,33,35;                                                     5P      4
510,147,1,1,37;                                                        7P      5
510,149,1,1,39;                                                        9P      6
510,151,2,1,41,43;                                                    11P      7
510,153,1,1,45;                                                       13P      8
510,155,1,1,47;                                                       15P      9
510,157,1,1,49;                                                       17P     10
510,159,2,1,51,53;                                                    19P     11
510,161,1,1,55;                                                       21P     12
510,163,1,1,57;                                                       23P     13
510,165,1,1,59;                                                       25P     14
510,167,1,1,61;                                                       27P     15
510,169,1,1,63;                                                       29P     16
510,171,2,1,65,67;                                                    31P     17
508,10,0,175,1,0,0,0,175,2,1,0,0,175,3,1,0,0,175,4,1,0,0,175,5,       33P     18
1,0,0,175,6,0,0,0,175,7,1,0,0,175,8,1,0,0,175,9,1,0,0,175,10,1,       33P     19
0;                                                                    33P     20
508,1,0,175,11,1,0;                                                   35P     21
508,4,0,175,12,0,0,0,175,13,0,0,0,175,8,0,0,0,175,14,0,0;             37P     22
508,4,0,175,15,0,0,0,175,14,1,0,0,175,7,0,0,0,175,16,0,0;             39P     23
508,4,0,175,17,0,0,0,175,16,1,0,0,175,6,1,0,0,175,18,1,0;             41P     24
508,2,0,175,19,1,0,0,175,20,1,0;                                      43P     25
508,4,0,175,21,0,0,0,175,18,0,0,0,175,5,0,0,0,175,22,1,0;             45P     26
508,4,0,175,23,0,0,0,175,22,0,0,0,175,4,0,0,0,175,24,1,0;             47P     27
508,6,0,175,19,0,0,0,175,20,0,0,0,175,25,1,0,0,175,26,0,0,0,175,      49P     28
27,0,0,0,175,25,0,0;                                                  49P     29
508,4,0,175,28,0,0,0,175,29,1,0,0,175,11,0,0,0,175,29,0,0;            51P     30
508,2,0,175,26,1,0,0,175,27,1,0;                                      53P     31
508,4,0,175,30,0,0,0,175,24,0,0,0,175,3,0,0,0,175,31,1,0;             55P     32
508,4,0,175,32,0,0,0,175,31,0,0,0,175,2,0,0,0,175,33,0,0;             57P     33
508,4,0,175,34,0,0,0,175,33,1,0,0,175,1,1,0,0,175,35,1,0;             59P     34
508,4,0,175,36,0,0,0,175,35,0,0,0,175,10,0,0,0,175,37,0,0;            61P     35
508,4,0,175,38,0,0,0,175,37,1,0,0,175,9,0,0,0,175,13,1,0;             63P     36
508,10,0,175,30,1,0,0,175,32,1,0,0,175,34,1,0,0,175,36,1,0,0,         65P     37
175,38,1,0,0,175,12,1,0,0,175,15,1,0,0,175,17,1,0,0,175,21,1,0,       65P     38
0,175,23,1,0;                                                         65P     39
508,1,0,175,28,1,0;                                                   67P     40
126,2,2,0,0,0,0,-0.785398163397448,-0.785398163397448,                69P     41
-0.785398163397448,0.785398163397448,0.785398163397448,               69P     42
0.785398163397448,1.,0.707106781186549,1.,94.2000016540288,           69P     43
3.79696274421804D-14,119.6,72.2000016540288,3.5527136788005D-14,      69P     44
119.6,72.2000016540288,3.30846461338297D-14,141.6,                    69P     45
-0.785398163397448,0.785398163397448,0.,0.,0.;                        69P     46
126,1,1,0,0,1,0,0.679999999999994,0.679999999999994,1.365,1.365,      71P     47
1.,1.,94.2000016540288,3.70370401014952D-14,119.6,                    71P     48
101.050001654029,3.85580456452317D-14,119.6,0.679999999999994,        71P     49
1.365,0.,0.,0.;                                                       71P     50
126,1,1,0,0,1,0,-0.889999958649998,-0.889999958649998,                73P     51
0.109999875950002,0.109999875950002,1.,1.,101.050001654029,           73P     52
3.99680288865056D-14,119.6,101.050001654029,                          73P     53
3.99680288865056D-14,129.599998346,-0.889999958649998,                73P     54
0.109999875950002,0.,0.,0.;                                           73P     55
126,1,1,0,0,1,0,0.523750000000001,0.523750000000001,1.15875,          75P     56
1.15875,1.,1.,101.050001654029,3.66900954062999D-14,                  75P     57
129.599998346,107.400001654029,3.81000786475738D-14,                  75P     58
129.599998346,0.523750000000001,1.15875,0.,0.,0.;                     75P     59
126,1,1,0,0,1,0,-0.520000165399999,-0.520000165399999,1.5,1.5,        77P     60
1.,1.,107.400001654029,3.5527136788005D-14,129.599998346,             77P     61
107.400001654029,3.5527136788005D-14,149.8,-0.520000165399999,        77P     62
1.5,0.,0.,0.;                                                         77P     63
126,1,1,0,0,1,0,-0.353553390593275,-0.353553390593275,                79P     64
0.353553390593273,0.353553390593273,1.,1.,102.400001654029,           79P     65
3.49720252756924D-14,154.8,107.400001654029,                          79P     66
3.60822483003176D-14,149.8,-0.353553390593275,0.353553390593273,      79P     67
0.,0.,0.;                                                             79P     68
126,1,1,0,0,1,0,-1.5,-1.5,0.52,0.52,1.,1.,102.400001654029,           81P     69
3.88578058618805D-14,154.8,82.2000016540289,                          81P     70
3.43725048423948D-14,154.8,-1.5,0.52,0.,0.,0.;                        81P     71
126,1,1,0,0,1,0,-1.15875,-1.15875,-0.523749999999998,                 83P     72
-0.523749999999998,1.,1.,82.2000016540289,3.5527136788005D-14,        83P     73
154.8,82.2000016540289,3.5527136788005D-14,148.45,-1.15875,           83P     74
-0.523749999999998,0.,0.,0.;                                          83P     75
126,1,1,0,0,1,0,-0.134999999999998,-0.134999999999998,                85P     76
0.865000000000007,0.865000000000007,1.,1.,82.2000016540289,           85P     77
3.58268970046538D-14,148.45,72.2000016540288,                         85P     78
3.36064509554035D-14,148.45,-0.134999999999998,                       85P     79
0.865000000000007,0.,0.,0.;                                           85P     80
126,1,1,0,0,1,0,-1.365,-1.365,-0.680000000000001,                     87P     81
-0.680000000000001,1.,1.,72.2000016540288,3.5527136788005D-14,        87P     82
148.45,72.2000016540288,3.5527136788005D-14,141.6,-1.365,             87P     83
-0.680000000000001,0.,0.,0.;                                          87P     84
126,8,2,0,1,0,0,-3.14159265358979,-3.14159265358979,                  89P     85
-3.14159265358979,-1.5707963267949,-1.5707963267949,                  89P     86
-1.77635683940025D-15,-1.77635683940025D-15,1.57079632679489,         89P     87
1.57079632679489,3.14159265358979,3.14159265358979,                   89P     88
3.14159265358979,1.,0.707106781186546,1.,0.707106781186546,1.,        89P     89
0.707106781186546,1.,0.707106781186546,1.,91.5561024477881,           89P     90
3.5527136788005D-14,129.249523371876,81.9311024477881,                89P     91
3.33899574656016D-14,129.249523371876,81.9311024477881,               89P     92
3.33899574656016D-14,138.874523371876,81.9311024477881,               89P     93
3.33899574656016D-14,148.499523371876,91.5561024477881,               89P     94
3.5527136788005D-14,148.499523371876,101.181102447788,                89P     95
3.76643161104084D-14,148.499523371876,101.181102447788,               89P     96
3.76643161104084D-14,138.874523371876,101.181102447788,               89P     97
3.76643161104084D-14,129.249523371876,91.5561024477881,               89P     98
3.5527136788005D-14,129.249523371876,-3.14159265358979,               89P     99
3.14159265358979,0.,0.,0.;                                            89P    100
126,1,1,0,0,1,0,0.353750000000002,0.353750000000002,0.98875,          91P    101
0.98875,1.,1.,82.2000016540289,101.8,148.45,82.2000016540289,         91P    102
101.8,154.8,0.353750000000002,0.98875,0.,0.,0.;                       91P    103
126,1,1,0,0,1,0,-4.56,-4.56,5.62,5.62,1.,1.,82.2000016540289,         93P    104
3.5527136788005D-14,148.45,82.2000016540289,101.8,148.45,-4.56,       93P    105
5.62,0.,0.,0.;                                                        93P    106
126,1,1,0,0,1,0,-2.81,-2.81,7.37,7.37,1.,1.,82.2000016540289,         95P    107
101.8,154.8,82.2000016540289,3.5527136788005D-14,154.8,-2.81,         95P    108
7.37,0.,0.,0.;                                                        95P    109
126,1,1,0,0,1,0,-0.69,-0.69,1.33,1.33,1.,1.,82.2000016540289,         97P    110
101.8,154.8,102.400001654029,101.8,154.8,-0.69,1.33,0.,0.,0.;         97P    111
126,1,1,0,0,1,0,0.,0.,10.18,10.18,1.,1.,102.400001654029,101.8,       99P    112
154.8,102.400001654029,3.5527136788005D-14,154.8,0.,10.18,0.,0.,      99P    113
0.;                                                                   99P    114
126,1,1,0,0,1,0,-0.353553390593273,-0.353553390593273,               101P    115
0.353553390593274,0.353553390593274,1.,1.,102.400001654029,          101P    116
101.8,154.8,107.400001654029,101.8,149.8,-0.353553390593273,         101P    117
0.353553390593274,0.,0.,0.;                                          101P    118
126,1,1,0,0,1,0,-10.18,-10.18,0.,0.,1.,1.,107.400001654029,          103P    119
3.5527136788005D-14,149.8,107.400001654029,101.8,149.8,-10.18,       103P    120
0.,0.,0.,0.;                                                         103P    121
126,4,2,0,0,0,0,-6.28318530717959,-6.28318530717959,                 105P    122
-6.28318530717959,-4.71238898038469,-4.71238898038469,               105P    123
-3.14159265358979,-3.14159265358979,-3.14159265358979,1.,            105P    124
0.707106781186544,1.,0.707106781186536,1.,104.900001654029,          105P    125
47.7500000000001,152.3,107.198098692885,47.7500000000001,            105P    126
150.001902961144,107.198098692885,44.5000000000001,                  105P    127
150.001902961144,107.198098692885,41.25,150.001902961144,            105P    128
104.900001654029,41.25,152.3,-6.28318530717959,                      105P    129
-3.14159265358979,0.,0.,0.;                                          105P    130
126,4,2,0,0,0,0,-3.14159265358979,-3.14159265358979,                 107P    131
-3.14159265358979,-1.5707963267949,-1.5707963267949,                 107P    132
-7.79472130949985D-15,-7.79472130949985D-15,                         107P    133
-7.79472130949985D-15,1.,0.707106781186544,1.,0.707106781186554,     107P    134
1.,104.900001654029,41.25,152.3,102.601904615173,41.25,              107P    135
154.598097038856,102.601904615173,44.5,154.598097038856,             107P    136
102.601904615173,47.75,154.598097038856,104.900001654029,            107P    137
47.7500000000001,152.3,-3.14159265358979,-7.79472130949985D-15,      107P    138
0.,0.,0.;                                                            107P    139
126,1,1,0,0,1,0,-1.33,-1.33,0.690000165399997,0.690000165399997,     109P    140
1.,1.,107.400001654029,101.8,149.8,107.400001654029,101.8,           109P    141
129.599998346,-1.33,0.690000165399997,0.,0.,0.;                      109P    142
126,1,1,0,0,1,0,-8.295,-8.295,1.885,1.885,1.,1.,                     111P    143
107.400001654029,3.5527136788005D-14,129.599998346,                  111P    144
107.400001654029,101.8,129.599998346,-8.295,1.885,0.,0.,0.;          111P    145
126,1,1,0,0,1,0,-0.988749999999998,-0.988749999999998,               113P    146
-0.353750000000002,-0.353750000000002,1.,1.,107.400001654029,        113P    147
101.8,129.599998346,101.050001654029,101.8,129.599998346,            113P    148
-0.988749999999998,-0.353750000000002,0.,0.,0.;                      113P    149
126,1,1,0,0,1,0,-6.40999999999999,-6.40999999999999,3.77,3.77,       115P    150
1.,1.,101.050001654029,3.5527136788005D-14,129.599998346,            115P    151
101.050001654029,101.8,129.599998346,-6.40999999999999,3.77,0.,      115P    152
0.,0.;                                                               115P    153
126,1,1,0,0,1,0,-8.76923076923074,-8.76923076923074,                 117P    154
-5.90646768120645,-5.90646768120645,1.,1.,104.900001654029,          117P    155
41.25,152.3,98.3210942784932,41.25,145.721092624464,                 117P    156
-8.76923076923074,-5.90646768120645,0.,0.,0.;                        117P    157
126,25,3,0,0,1,0,0.,0.,0.,0.,0.123494278217014,                      119P    158
0.123494278217014,0.246988556434028,0.246988556434028,               119P    159
0.370339806022552,0.370339806022552,0.493691055611076,               119P    160
0.493691055611076,0.617243997355072,0.617243997355072,               119P    161
0.740796939099068,0.740796939099068,0.864322822623858,               119P    162
0.864322822623858,0.987848706148649,0.987848706148649,               119P    163
1.11140896607387,1.11140896607387,1.23496922599908,                  119P    164
1.23496922599908,1.35848781048182,1.35848781048182,                  119P    165
1.48200639496455,1.48200639496455,1.48200639496455,                  119P    166
1.48200639496455,1.,1.,1.,1.,1.,1.,1.,1.,1.,1.,1.,1.,1.,1.,1.,       119P    167
1.,1.,1.,1.,1.,1.,1.,1.,1.,1.,1.,100.234070524726,44.5,              119P    168
143.037874792984,100.234070524726,44.9116475940568,                  119P    169
143.037874792984,100.196934380107,45.3483714451654,                  119P    170
143.118010195871,100.037219500758,46.148201111553,                   119P    171
143.428840986783,99.9134311639746,46.511614547123,                   119P    172
143.658120408385,99.6047956022476,47.0851632637878,                  119P    173
144.160928644042,99.398757866351,47.3347241140459,                   119P    174
144.468785338041,98.903699776343,47.6672250571169,                   119P    175
145.104758074858,98.613573195446,47.75,145.43209861727,              119P    176
98.0281371280131,47.75,146.010559166995,97.6968111284789,            119P    177
47.6669822448146,146.297143905834,97.0536851777128,                  119P    178
47.3340765735839,146.785287103681,96.7426396181957,                  119P    179
47.0843663533245,146.987959711823,96.234997880319,                   119P    180
46.5109391024936,147.29093093806,96.003554673781,                    119P    181
46.1478405468471,147.412177497117,95.6896388274837,                  119P    182
45.3484107897244,147.568501048325,95.6086113775096,                  119P    183
44.9117529450827,147.604803801193,95.6086113775096,                  119P    184
44.088132466916,147.604803801193,95.6896837290933,                   119P    185
43.6513624802624,147.568481472607,96.0037546779781,                  119P    186
42.8517625853318,147.412075112745,96.2353068331743,                  119P    187
42.4886057021936,147.290764083908,96.743031858322,                   119P    188
41.915296921603,146.987708056116,97.0540138435761,                   119P    189
41.6657094208248,146.785054210505,97.6969840630051,                  119P    190
41.3329721482234,146.296996063115,98.0282185927295,41.25,            119P    191
146.010478672937,98.3210942784932,41.25,145.721092624464,0.,         119P    192
1.48200639496455,0.,0.,0.;                                           119P    193
126,9,3,0,0,1,0,1.48200639496455,1.48200639496455,                   121P    194
1.48200639496455,1.48200639496455,1.60539068475571,                  121P    195
1.60539068475571,1.72877497454686,1.72877497454686,                  121P    196
1.85223620137789,1.85223620137789,1.97569742820892,                  121P    197
1.97569742820892,1.97569742820892,1.97569742820892,1.,1.,1.,1.,      121P    198
1.,1.,1.,1.,1.,1.,98.3210942784932,41.25,145.721092624464,           121P    199
98.6136515372765,41.25,145.432021208889,98.903843963768,             121P    200
41.332818777386,145.104593475606,99.3989855774853,                   121P    201
41.6654818732925,144.468472165041,99.6050420130183,                  121P    202
41.9151609714093,144.160554769774,99.913594924242,                   121P    203
42.488823750626,143.6578259984,100.037320064973,42.852180946104,     121P    204
143.428650475819,100.19695365007,43.651846700842,                    121P    205
143.117967486256,100.234070524726,44.08846257723,                    121P    206
143.037874792984,100.234070524726,44.5,143.037874792984,             121P    207
1.48200639496455,1.97569742820892,0.,0.,0.;                          121P    208
126,8,2,0,1,0,0,-3.14159265358979,-3.14159265358979,                 123P    209
-3.14159265358979,-1.5707963267949,-1.5707963267949,0.,0.,           123P    210
1.5707963267949,1.5707963267949,3.14159265358979,                    123P    211
3.14159265358979,3.14159265358979,1.,0.707106781186551,1.,           123P    212
0.707106781186546,1.,0.707106781186546,1.,0.707106781186546,1.,      123P    213
91.5561024477881,101.8,129.249523371876,101.181102447788,101.8,      123P    214
129.249523371876,101.181102447788,101.8,138.874523371876,            123P    215
101.181102447788,101.8,148.499523371876,91.5561024477881,101.8,      123P    216
148.499523371876,81.9311024477881,101.8,148.499523371876,            123P    217
81.9311024477881,101.8,138.874523371876,81.9311024477881,101.8,      123P    218
129.249523371876,91.5561024477881,101.8,129.249523371876,            123P    219
-3.14159265358979,3.14159265358979,0.,0.,0.;                         123P    220
126,1,1,0,0,1,0,10.6876640419947,10.6876640419947,                   125P    221
21.3753280839895,21.3753280839895,1.,1.,91.5561024477881,101.8,      125P    222
129.249523371876,91.5561024477881,3.5527136788005D-14,               125P    223
129.249523371876,10.6876640419947,21.3753280839895,0.,0.,0.;         125P    224
126,1,1,0,0,1,0,0.0600001240499957,0.0600001240499957,               127P    225
1.05999995865,1.05999995865,1.,1.,101.050001654029,101.8,            127P    226
129.599998346,101.050001654029,101.8,119.6,0.0600001240499957,       127P    227
1.05999995865,0.,0.,0.;                                              127P    228
126,1,1,0,0,1,0,-8.295,-8.295,1.885,1.885,1.,1.,                     129P    229
101.050001654029,3.5527136788005D-14,119.6,101.050001654029,         129P    230
101.8,119.6,-8.295,1.885,0.,0.,0.;                                   129P    231
126,1,1,0,0,1,0,-1.19500000000001,-1.19500000000001,                 131P    232
-0.509999999999998,-0.509999999999998,1.,1.,101.050001654029,        131P    233
101.8,119.6,94.2000016540288,101.8,119.6,-1.19500000000001,          131P    234
-0.509999999999998,0.,0.,0.;                                         131P    235
126,1,1,0,0,1,0,0.,0.,10.18,10.18,1.,1.,94.2000016540288,101.8,      133P    236
119.6,94.2000016540288,3.5527136788005D-14,119.6,0.,10.18,0.,0.,     133P    237
0.;                                                                  133P    238
126,2,2,0,0,0,0,-0.785398163397448,-0.785398163397448,               135P    239
-0.785398163397448,0.785398163397448,0.785398163397448,              135P    240
0.785398163397448,1.,0.707106781186549,1.,94.2000016540288,          135P    241
101.8,119.6,72.2000016540288,101.8,119.6,72.2000016540288,101.8,     135P    242
141.6,-0.785398163397448,0.785398163397448,0.,0.,0.;                 135P    243
126,1,1,0,0,1,0,-10.18,-10.18,0.,0.,1.,1.,72.2000016540288,          137P    244
3.5527136788005D-14,141.6,72.2000016540288,101.8,141.6,-10.18,       137P    245
0.,0.,0.,0.;                                                         137P    246
126,1,1,0,0,1,0,0.510000000000003,0.510000000000003,1.195,1.195,     139P    247
1.,1.,72.2000016540288,101.8,141.6,72.2000016540288,101.8,           139P    248
148.45,0.510000000000003,1.195,0.,0.,0.;                             139P    249
126,1,1,0,0,1,0,-2.81,-2.81,7.37000002387343,7.37000002387343,       141P    250
1.,1.,72.2000016540288,101.8,148.45,72.2000016540288,                141P    251
3.5527136788005D-14,148.45,-2.81,7.37000002387343,0.,0.,0.;          141P    252
126,1,1,0,0,1,0,-1.03500000000001,-1.03500000000001,                 143P    253
-0.0350000000000019,-0.0350000000000019,1.,1.,72.2000016540288,      143P    254
101.8,148.45,82.2000016540289,101.8,148.45,-1.03500000000001,        143P    255
-0.0350000000000019,0.,0.,0.;                                        143P    256
128,1,1,1,1,0,0,1,0,0,-1.52000000000001,-1.52000000000001,2.,2.,     145P    257
-1.52,-1.52,2.,2.,1.,1.,1.,1.,72.2000016540288,                      145P    258
3.21520587931445D-14,119.6,107.400001654029,                         145P    259
3.99680288865056D-14,119.6,72.2000016540288,                         145P    260
3.21520587931445D-14,154.8,107.400001654029,                         145P    261
3.99680288865056D-14,154.8,-1.52000000000001,2.,-1.52,2.;            145P    262
128,1,1,1,1,0,0,1,0,0,-0.317500000000001,-0.317500000000001,         147P    263
0.317500000000001,0.317500000000001,-4.56,-4.56,5.62,5.62,1.,1.,     147P    264
1.,1.,82.2000016540289,3.5527136788005D-14,148.45,                   147P    265
82.2000016540289,3.5527136788005D-14,154.8,82.2000016540289,         147P    266
101.8,148.45,82.2000016540289,101.8,154.8,-0.317500000000001,        147P    267
0.317500000000001,-4.56,5.62;                                        147P    268
128,1,1,1,1,0,0,1,0,0,-10.18,-10.18,0.,0.,-0.520000000000002,        149P    269
-0.520000000000002,1.5,1.5,1.,1.,1.,1.,82.2000016540289,101.8,       149P    270
154.8,82.2000016540289,3.43725048423948D-14,154.8,                   149P    271
102.400001654029,101.8,154.8,102.400001654029,                       149P    272
3.88578058618805D-14,154.8,-10.18,0.,-0.520000000000002,1.5;         149P    273
128,1,1,1,1,0,0,1,0,0,-0.353553390593274,-0.353553390593274,         151P    274
0.353553390593275,0.353553390593275,-10.18,-10.18,                   151P    275
1.11022302462516D-17,1.11022302462516D-17,1.,1.,1.,1.,               151P    276
102.400001654029,3.5527136788005D-14,154.8,107.400001654029,         151P    277
3.5527136788005D-14,149.8,102.400001654029,101.8,154.8,              151P    278
107.400001654029,101.8,149.8,-0.353553390593274,                     151P    279
0.353553390593275,-10.18,1.11022302462516D-17;                       151P    280
128,1,1,1,1,0,0,1,0,0,-7.39557098644697D-32,                         153P    281
-7.39557098644697D-32,10.18,10.18,-0.520000165399999,                153P    282
-0.520000165399999,1.5,1.5,1.,1.,1.,1.,107.400001654029,             153P    283
3.5527136788005D-14,129.599998346,107.400001654029,101.8,            153P    284
129.599998346,107.400001654029,3.5527136788005D-14,149.8,            153P    285
107.400001654029,101.8,149.8,-7.39557098644697D-32,10.18,            153P    286
-0.520000165399999,1.5;                                              153P    287
128,1,1,1,1,0,0,1,0,0,-6.40999999999999,-6.40999999999999,           155P    288
3.77000000000001,3.77000000000001,-0.3175,-0.3175,                   155P    289
0.317500000000001,0.317500000000001,1.,1.,1.,1.,                     155P    290
101.050001654029,3.4822145167368D-14,129.599998346,                  155P    291
101.050001654029,101.8,129.599998346,107.400001654029,               155P    292
3.6232128408642D-14,129.599998346,107.400001654029,101.8,            155P    293
129.599998346,-6.40999999999999,3.77000000000001,-0.3175,            155P    294
0.317500000000001;                                                   155P    295
128,1,8,1,2,0,1,0,0,1,-8.76923076923074,-8.76923076923074,           157P    296
-5.72615072542919,-5.72615072542919,-3.14159265358979,               157P    297
-3.14159265358979,-3.14159265358979,-1.5707963267949,                157P    298
-1.5707963267949,0.,0.,1.5707963267949,1.5707963267949,              157P    299
3.14159265358979,3.14159265358979,3.14159265358979,1.,1.,            157P    300
0.707106781186548,0.707106781186548,1.,1.,0.707106781186548,         157P    301
0.707106781186548,1.,1.,0.707106781186548,0.707106781186548,1.,      157P    302
1.,0.707106781186548,0.707106781186548,1.,1.,104.900001654029,       157P    303
41.25,152.3,97.9067084163659,41.25,145.306706762337,                 157P    304
102.601904615173,41.25,154.598097038856,95.6086113775096,41.25,      157P    305
147.604803801193,102.601904615173,44.5,154.598097038856,             157P    306
95.6086113775096,44.5,147.604803801193,102.601904615173,             157P    307
47.7500000000001,154.598097038856,95.6086113775096,47.75,            157P    308
147.604803801193,104.900001654029,47.7500000000001,152.3,            157P    309
97.9067084163659,47.75,145.306706762337,107.198098692885,            157P    310
47.7500000000001,150.001902961144,100.204805455222,47.75,            157P    311
143.008609723481,107.198098692885,44.5,150.001902961144,             157P    312
100.204805455222,44.5,143.008609723481,107.198098692885,41.25,       157P    313
150.001902961144,100.204805455222,41.25,143.008609723481,            157P    314
104.900001654029,41.25,152.3,97.9067084163659,41.25,                 157P    315
145.306706762337,-8.76923076923074,-5.72615072542919,                157P    316
-3.14159265358979,3.14159265358979;                                  157P    317
128,1,8,1,2,0,1,0,0,1,10.6876640419947,10.6876640419947,             159P    318
21.3753280839895,21.3753280839895,-3.14159265358979,                 159P    319
-3.14159265358979,-3.14159265358979,-1.5707963267949,                159P    320
-1.5707963267949,0.,0.,1.5707963267949,1.5707963267949,              159P    321
3.14159265358979,3.14159265358979,3.14159265358979,1.,1.,            159P    322
0.707106781186548,0.707106781186548,1.,1.,0.707106781186548,         159P    323
0.707106781186548,1.,1.,0.707106781186548,0.707106781186548,1.,      159P    324
1.,0.707106781186548,0.707106781186548,1.,1.,91.5561024477881,       159P    325
101.8,129.249523371876,91.5561024477881,3.5527136788005D-14,         159P    326
129.249523371876,101.181102447788,101.8,129.249523371876,            159P    327
101.181102447788,3.76850654242182D-14,129.249523371876,              159P    328
101.181102447788,101.8,138.874523371876,101.181102447788,            159P    329
3.76850654242182D-14,138.874523371876,101.181102447788,101.8,        159P    330
148.499523371876,101.181102447788,3.76850654242182D-14,              159P    331
148.499523371876,91.5561024477881,101.8,148.499523371876,            159P    332
91.5561024477881,3.5527136788005D-14,148.499523371876,               159P    333
81.9311024477881,101.8,148.499523371876,81.9311024477881,            159P    334
3.33692081517918D-14,148.499523371876,81.9311024477881,101.8,        159P    335
138.874523371876,81.9311024477881,3.33692081517918D-14,              159P    336
138.874523371876,81.9311024477881,101.8,129.249523371876,            159P    337
81.9311024477881,3.33692081517918D-14,129.249523371876,              159P    338
91.5561024477881,101.8,129.249523371876,91.5561024477881,            159P    339
3.5527136788005D-14,129.249523371876,10.6876640419947,               159P    340
21.3753280839895,-3.14159265358979,3.14159265358979;                 159P    341
128,1,1,1,1,0,0,1,0,0,-6.40999999999999,-6.40999999999999,           161P    342
3.77000000000001,3.77000000000001,-0.259999917299997,                161P    343
-0.259999917299997,0.739999917300004,0.739999917300004,1.,1.,1.,     161P    344
1.,101.050001654029,3.5527136788005D-14,119.6,101.050001654029,      161P    345
101.8,119.6,101.050001654029,3.5527136788005D-14,129.599998346,      161P    346
101.050001654029,101.8,129.599998346,-6.40999999999999,              161P    347
3.77000000000001,-0.259999917299997,0.739999917300004;               161P    348
128,1,1,1,1,0,0,1,0,0,0.679999999999998,0.679999999999998,           163P    349
1.36500000000001,1.36500000000001,-10.18,-10.18,                     163P    350
1.77635683940025D-15,1.77635683940025D-15,1.,1.,1.,1.,               163P    351
101.050001654029,3.5527136788005D-14,119.6,94.2000016540288,         163P    352
3.5527136788005D-14,119.6,101.050001654029,101.8,119.6,              163P    353
94.2000016540288,101.8,119.6,0.679999999999998,1.36500000000001,     163P    354
-10.18,1.77635683940025D-15;                                         163P    355
128,1,2,1,2,0,0,0,0,0,-5.09,-5.09,0.,0.,-0.785398163397448,          165P    356
-0.785398163397448,-0.785398163397448,0.785398163397448,             165P    357
0.785398163397448,0.785398163397448,1.,1.,0.707106781186548,         165P    358
0.707106781186548,1.,1.,94.2000016540288,101.8,119.6,                165P    359
94.2000016540288,3.5527136788005D-14,119.6,72.2000016540288,         165P    360
101.8,119.6,72.2000016540288,3.5527136788005D-14,119.6,              165P    361
72.2000016540288,101.8,141.6,72.2000016540288,                       165P    362
3.5527136788005D-14,141.6,-5.09,0.,-0.785398163397448,               165P    363
0.785398163397448;                                                   165P    364
128,1,1,1,1,0,0,1,0,0,-1.365,-1.365,-0.680000000000003,              167P    365
-0.680000000000003,-10.1800000238734,-10.1800000238734,              167P    366
3.37731075047745D-33,3.37731075047745D-33,1.,1.,1.,1.,               167P    367
72.2000016540288,-2.38734276791774D-7,141.6,72.2000016540288,        167P    368
-2.38734276791774D-7,148.45,72.2000016540288,101.8,141.6,            167P    369
72.2000016540288,101.8,148.45,-1.365,-0.680000000000003,             167P    370
-10.1800000238734,3.37731075047745D-33;                              167P    371
128,1,1,1,1,0,0,1,0,0,-4.56000002387343,-4.56000002387343,5.62,      169P    372
5.62,-0.790000000000001,-0.790000000000001,0.210000000000006,        169P    373
0.210000000000006,1.,1.,1.,1.,82.2000016540289,                      169P    374
-2.38734275037622D-7,148.45,82.2000016540289,101.8,148.45,           169P    375
72.2000016540288,-2.38734277258068D-7,148.45,72.2000016540288,       169P    376
101.8,148.45,-4.56000002387343,5.62,-0.790000000000001,              169P    377
0.210000000000006;                                                   169P    378
128,1,1,1,1,0,0,1,0,0,-1.86,-1.86,1.66,1.66,-1.86000000000001,       171P    379
-1.86000000000001,1.66,1.66,1.,1.,1.,1.,72.2000016540288,101.8,      171P    380
119.6,72.2000016540288,101.8,154.8,107.400001654029,101.8,119.6,     171P    381
107.400001654029,101.8,154.8,-1.86,1.66,-1.86000000000001,1.66;      171P    382
502,26,94.2000016540288,3.62820884447501D-14,119.6,                  173P    383
72.2000016540288,3.38395977905748D-14,141.6,101.050001654029,        173P    384
3.77475828372553D-14,119.6,101.050001654029,3.5527136788005D-14,     173P    385
129.599998346,107.400001654029,4.44089209850063D-14,                 173P    386
129.599998346,107.400001654029,3.5527136788005D-14,149.8,            173P    387
102.400001654029,3.88578058618805D-14,154.8,82.2000016540289,        173P    388
3.574918139293D-14,154.8,82.2000016540289,3.574918139293D-14,        173P    389
148.45,72.2000016540288,3.45667938717042D-14,148.45,                 173P    390
91.5561024477881,3.5527136788005D-14,129.249523371876,               173P    391
82.2000016540289,101.8,148.45,82.2000016540289,101.8,154.8,          173P    392
102.400001654029,101.8,154.8,107.400001654029,101.8,149.8,           173P    393
104.900001654029,47.7500000000001,152.3,104.900001654029,41.25,      173P    394
152.3,107.400001654029,101.8,129.599998346,101.050001654029,         173P    395
101.8,129.599998346,98.3210942784932,41.25,145.721092624464,         173P    396
100.234070524726,44.5,143.037874792984,91.5561024477881,101.8,       173P    397
129.249523371876,101.050001654029,101.8,119.6,94.2000016540288,      173P    398
101.8,119.6,72.2000016540288,101.8,141.6,72.2000016540288,101.8,     173P    399
148.45;                                                              173P    400
504,38,69,173,1,173,2,71,173,1,173,3,73,173,3,173,4,75,173,4,        175P    401
173,5,77,173,5,173,6,79,173,7,173,6,81,173,7,173,8,83,173,8,173,     175P    402
9,85,173,9,173,10,87,173,10,173,2,89,173,11,173,11,91,173,12,        175P    403
173,13,93,173,9,173,12,95,173,13,173,8,97,173,13,173,14,99,173,      175P    404
14,173,7,101,173,14,173,15,103,173,6,173,15,105,173,16,173,17,       175P    405
107,173,17,173,16,109,173,15,173,18,111,173,5,173,18,113,173,18,     175P    406
173,19,115,173,4,173,19,117,173,17,173,20,119,173,21,173,20,121,     175P    407
173,20,173,21,123,173,22,173,22,125,173,22,173,11,127,173,19,        175P    408
173,23,129,173,3,173,23,131,173,23,173,24,133,173,24,173,1,135,      175P    409
173,24,173,25,137,173,2,173,25,139,173,25,173,26,141,173,26,173,     175P    410
10,143,173,26,173,12;                                                175P    411
406,1,13HCorner Bottom;                                              177P    412
314,18.8235294117647,23.1372549019608,58.8235294117647,23HPlasti     179P    413
c - Glossy (Blue);                                                   179P    414
314,62.7450980392157,62.7450980392157,62.7450980392157,13HSteel      181P    415
- Satin;                                                             181P    416
S      1G      2D    182P    416                                        T      1
