                                                                        S      1
,,12HCornerHalfEL,12HCornerHalfEL,7Hunknown,7Hunknown,32,38,7,99,15,,1.,G      1
2,2HMM,1,0.08,15H20151025.132914,0.01,10000.,7Hunknown,7Hunknown,11,0,; G      2
     186       1                                                00000000D      1
     186            -179       1       0                               0D      2
     514       2                                                00010000D      3
     514                       2       1                               0D      4
     510       4                                                00010000D      5
     510            -179       1       1                               0D      6
     510       5                                                00010000D      7
     510            -179       1       1                               0D      8
     510       6                                                00010000D      9
     510            -179       1       1                               0D     10
     510       7                                                00010000D     11
     510            -179       1       1                               0D     12
     510       8                                                00010000D     13
     510            -179       1       1                               0D     14
     510       9                                                00010000D     15
     510            -179       1       1                               0D     16
     510      10                                                00010000D     17
     510            -179       1       1                               0D     18
     510      11                                                00010000D     19
     510            -179       1       1                               0D     20
     510      12                                                00010000D     21
     510            -179       1       1                               0D     22
     510      13                                                00010000D     23
     510            -179       1       1                               0D     24
     510      14                                                00010000D     25
     510            -179       1       1                               0D     26
     510      15                                                00010000D     27
     510            -179       1       1                               0D     28
     510      16                                                00010000D     29
     510            -179       1       1                               0D     30
     510      17                                                00010000D     31
     510            -179       1       1                               0D     32
     508      18                                                00010000D     33
     508                       3       1                               0D     34
     508      21                                                00010000D     35
     508                       1       1                               0D     36
     508      22                                                00010000D     37
     508                       1       1                               0D     38
     508      23                                                00010000D     39
     508                       1       1                               0D     40
     508      24                                                00010000D     41
     508                       1       1                               0D     42
     508      25                                                00010000D     43
     508                       1       1                               0D     44
     508      26                                                00010000D     45
     508                       1       1                               0D     46
     508      27                                                00010000D     47
     508                       1       1                               0D     48
     508      28                                                00010000D     49
     508                       2       1                               0D     50
     508      30                                                00010000D     51
     508                       1       1                               0D     52
     508      31                                                00010000D     53
     508                       1       1                               0D     54
     508      32                                                00010000D     55
     508                       1       1                               0D     56
     508      33                                                00010000D     57
     508                       1       1                               0D     58
     508      34                                                00010000D     59
     508                       1       1                               0D     60
     508      35                                                00010000D     61
     508                       1       1                               0D     62
     508      36                                                00010000D     63
     508                       1       1                               0D     64
     508      37                                                00010000D     65
     508                       3       1                               0D     66
     508      40                                                00010000D     67
     508                       1       1                               0D     68
     126      41                                                00010000D     69
     126       0               5       0                               0D     70
     126      46                                                00010000D     71
     126       0               3       0                               0D     72
     126      49                                                00010000D     73
     126       0               4       0                               0D     74
     126      53                                                00010000D     75
     126       0               4       0                               0D     76
     126      57                                                00010000D     77
     126       0               3       0                               0D     78
     126      60                                                00010000D     79
     126       0               4       0                               0D     80
     126      64                                                00010000D     81
     126       0               2       0                               0D     82
     126      66                                                00010000D     83
     126       0               4       0                               0D     84
     126      70                                                00010000D     85
     126       0               4       0                               0D     86
     126      74                                                00010000D     87
     126       0               3       0                               0D     88
     126      77                                                00010000D     89
     126       0              13       0                               0D     90
     126      90                                                00010000D     91
     126       0               3       0                               0D     92
     126      93                                                00010000D     93
     126       0               2       0                               0D     94
     126      95                                                00010000D     95
     126       0               2       0                               0D     96
     126      97                                                00010000D     97
     126       0               2       0                               0D     98
     126      99                                                00010000D     99
     126       0               2       0                               0D    100
     126     101                                                00010000D    101
     126       0               4       0                               0D    102
     126     105                                                00010000D    103
     126       0               2       0                               0D    104
     126     107                                                00010000D    105
     126       0               8       0                               0D    106
     126     115                                                00010000D    107
     126       0               8       0                               0D    108
     126     123                                                00010000D    109
     126       0               3       0                               0D    110
     126     126                                                00010000D    111
     126       0               3       0                               0D    112
     126     129                                                00010000D    113
     126       0               4       0                               0D    114
     126     133                                                00010000D    115
     126       0               4       0                               0D    116
     126     137                                                00010000D    117
     126       0               4       0                               0D    118
     126     141                                                00010000D    119
     126       0              36       0                               0D    120
     126     177                                                00010000D    121
     126       0              15       0                               0D    122
     126     192                                                00010000D    123
     126       0              12       0                               0D    124
     126     204                                                00010000D    125
     126       0               4       0                               0D    126
     126     208                                                00010000D    127
     126       0               4       0                               0D    128
     126     212                                                00010000D    129
     126       0               3       0                               0D    130
     126     215                                                00010000D    131
     126       0               3       0                               0D    132
     126     218                                                00010000D    133
     126       0               2       0                               0D    134
     126     220                                                00010000D    135
     126       0               5       0                               0D    136
     126     225                                                00010000D    137
     126       0               2       0                               0D    138
     126     227                                                00010000D    139
     126       0               3       0                               0D    140
     126     230                                                00010000D    141
     126       0               2       0                               0D    142
     126     232                                                00010000D    143
     126       0               4       0                               0D    144
     128     236                                                00010000D    145
     128       0    -179       4       0                               0D    146
     128     240                                                00010000D    147
     128       0    -179       5       0                               0D    148
     128     245                                                00010000D    149
     128       0    -179       5       0                               0D    150
     128     250                                                00010000D    151
     128       0    -179       5       0                               0D    152
     128     255                                                00010000D    153
     128       0    -179       5       0                               0D    154
     128     260                                                00010000D    155
     128       0    -179       7       0                               0D    156
     128     267                                                00010000D    157
     128       0    -179      21       0                               0D    158
     128     288                                                00010000D    159
     128       0    -179      21       0                               0D    160
     128     309                                                00010000D    161
     128       0    -179       7       0                               0D    162
     128     316                                                00010000D    163
     128       0    -179       5       0                               0D    164
     128     321                                                00010000D    165
     128       0    -179       8       0                               0D    166
     128     329                                                00010000D    167
     128       0    -179       5       0                               0D    168
     128     334                                                00010000D    169
     128       0    -179       5       0                               0D    170
     128     339                                                00010000D    171
     128       0    -179       4       0                               0D    172
     502     343                                                00010000D    173
     502                      15       1                               0D    174
     504     358                                                00010001D    175
     504                      11       1                               0D    176
     406     369                                                00000000D    177
     406                       1      15                               0D    178
     314     370                                                00000200D    179
     314                       2       0                               0D    180
     314     372                                                00000200D    181
     314                       2       0                               0D    182
186,3,1,0,0,1,177;                                                     1P      1
514,14,5,1,7,1,9,1,11,1,13,1,15,1,17,1,19,1,21,1,23,1,25,1,27,1,       3P      2
29,1,31,1;                                                             3P      3
510,145,2,1,33,35;                                                     5P      4
510,147,1,1,37;                                                        7P      5
510,149,1,1,39;                                                        9P      6
510,151,2,1,41,43;                                                    11P      7
510,153,1,1,45;                                                       13P      8
510,155,1,1,47;                                                       15P      9
510,157,1,1,49;                                                       17P     10
510,159,2,1,51,53;                                                    19P     11
510,161,1,1,55;                                                       21P     12
510,163,1,1,57;                                                       23P     13
510,165,1,1,59;                                                       25P     14
510,167,1,1,61;                                                       27P     15
510,169,1,1,63;                                                       29P     16
510,171,2,1,65,67;                                                    31P     17
508,10,0,175,1,0,0,0,175,2,1,0,0,175,3,1,0,0,175,4,1,0,0,175,5,       33P     18
1,0,0,175,6,0,0,0,175,7,1,0,0,175,8,1,0,0,175,9,1,0,0,175,10,1,       33P     19
0;                                                                    33P     20
508,1,0,175,11,1,0;                                                   35P     21
508,4,0,175,12,0,0,0,175,13,0,0,0,175,8,0,0,0,175,14,0,0;             37P     22
508,4,0,175,15,0,0,0,175,14,1,0,0,175,7,0,0,0,175,16,0,0;             39P     23
508,4,0,175,17,0,0,0,175,16,1,0,0,175,6,1,0,0,175,18,1,0;             41P     24
508,2,0,175,19,1,0,0,175,20,1,0;                                      43P     25
508,4,0,175,21,0,0,0,175,18,0,0,0,175,5,0,0,0,175,22,1,0;             45P     26
508,4,0,175,23,0,0,0,175,22,0,0,0,175,4,0,0,0,175,24,1,0;             47P     27
508,6,0,175,19,0,0,0,175,20,0,0,0,175,25,1,0,0,175,26,0,0,0,175,      49P     28
27,0,0,0,175,25,0,0;                                                  49P     29
508,4,0,175,28,0,0,0,175,29,1,0,0,175,11,0,0,0,175,29,0,0;            51P     30
508,2,0,175,26,1,0,0,175,27,1,0;                                      53P     31
508,4,0,175,30,0,0,0,175,24,0,0,0,175,3,0,0,0,175,31,1,0;             55P     32
508,4,0,175,32,0,0,0,175,31,0,0,0,175,2,0,0,0,175,33,0,0;             57P     33
508,4,0,175,34,0,0,0,175,33,1,0,0,175,1,1,0,0,175,35,1,0;             59P     34
508,4,0,175,36,0,0,0,175,35,0,0,0,175,10,0,0,0,175,37,0,0;            61P     35
508,4,0,175,38,0,0,0,175,37,1,0,0,175,9,0,0,0,175,13,1,0;             63P     36
508,10,0,175,30,1,0,0,175,32,1,0,0,175,34,1,0,0,175,36,1,0,0,         65P     37
175,38,1,0,0,175,12,1,0,0,175,15,1,0,0,175,17,1,0,0,175,21,1,0,       65P     38
0,175,23,1,0;                                                         65P     39
508,1,0,175,28,1,0;                                                   67P     40
126,2,2,0,0,0,0,-0.785398163397448,-0.785398163397448,                69P     41
-0.785398163397448,0.785398163397448,0.785398163397448,               69P     42
0.785398163397448,1.,0.707106781186549,1.,94.2000016540288,           69P     43
-18.7,119.6,72.2000016540288,-18.7,119.6,72.2000016540288,-18.7,      69P     44
141.6,-0.785398163397448,0.785398163397448,0.,0.,0.;                  69P     45
126,1,1,0,0,1,0,0.679999999999994,0.679999999999994,1.365,1.365,      71P     46
1.,1.,94.2000016540288,-18.7,119.6,101.050001654029,-18.7,119.6,      71P     47
0.679999999999994,1.365,0.,0.,0.;                                     71P     48
126,1,1,0,0,1,0,-0.889999958649998,-0.889999958649998,                73P     49
0.109999875950002,0.109999875950002,1.,1.,101.050001654029,           73P     50
-18.7,119.6,101.050001654029,-18.7,129.599998346,                     73P     51
-0.889999958649998,0.109999875950002,0.,0.,0.;                        73P     52
126,1,1,0,0,1,0,0.523750000000001,0.523750000000001,1.15875,          75P     53
1.15875,1.,1.,101.050001654029,-18.7,129.599998346,                   75P     54
107.400001654029,-18.7,129.599998346,0.523750000000001,1.15875,       75P     55
0.,0.,0.;                                                             75P     56
126,1,1,0,0,1,0,-0.520000165399999,-0.520000165399999,1.5,1.5,        77P     57
1.,1.,107.400001654029,-18.7,129.599998346,107.400001654029,          77P     58
-18.7,149.8,-0.520000165399999,1.5,0.,0.,0.;                          77P     59
126,1,1,0,0,1,0,-0.353553390593275,-0.353553390593275,                79P     60
0.353553390593273,0.353553390593273,1.,1.,102.400001654029,           79P     61
-18.7,154.8,107.400001654029,-18.7,149.8,-0.353553390593275,          79P     62
0.353553390593273,0.,0.,0.;                                           79P     63
126,1,1,0,0,1,0,-1.5,-1.5,0.52,0.52,1.,1.,102.400001654029,           81P     64
-18.7,154.8,82.2000016540289,-18.7,154.8,-1.5,0.52,0.,0.,0.;          81P     65
126,1,1,0,0,1,0,-1.15875,-1.15875,-0.523749999999998,                 83P     66
-0.523749999999998,1.,1.,82.2000016540289,-18.7,154.8,                83P     67
82.2000016540289,-18.7,148.45,-1.15875,-0.523749999999998,0.,0.,      83P     68
0.;                                                                   83P     69
126,1,1,0,0,1,0,-0.134999999999998,-0.134999999999998,                85P     70
0.865000000000007,0.865000000000007,1.,1.,82.2000016540289,           85P     71
-18.7,148.45,72.2000016540288,-18.7,148.45,-0.134999999999998,        85P     72
0.865000000000007,0.,0.,0.;                                           85P     73
126,1,1,0,0,1,0,-1.365,-1.365,-0.680000000000001,                     87P     74
-0.680000000000001,1.,1.,72.2000016540288,-18.7,148.45,               87P     75
72.2000016540288,-18.7,141.6,-1.365,-0.680000000000001,0.,0.,0.;      87P     76
126,8,2,0,1,0,0,-3.14159265358979,-3.14159265358979,                  89P     77
-3.14159265358979,-1.5707963267949,-1.5707963267949,                  89P     78
-1.77635683940025D-15,-1.77635683940025D-15,1.57079632679489,         89P     79
1.57079632679489,3.14159265358979,3.14159265358979,                   89P     80
3.14159265358979,1.,0.707106781186546,1.,0.707106781186546,1.,        89P     81
0.707106781186546,1.,0.707106781186546,1.,91.5561024477881,           89P     82
-18.7,129.249523371876,81.9311024477881,-18.7,129.249523371876,       89P     83
81.9311024477881,-18.7,138.874523371876,81.9311024477881,-18.7,       89P     84
148.499523371876,91.5561024477881,-18.7,148.499523371876,             89P     85
101.181102447788,-18.7,148.499523371876,101.181102447788,-18.7,       89P     86
138.874523371876,101.181102447788,-18.7,129.249523371876,             89P     87
91.5561024477881,-18.7,129.249523371876,-3.14159265358979,            89P     88
3.14159265358979,0.,0.,0.;                                            89P     89
126,1,1,0,0,1,0,0.353750000000002,0.353750000000002,0.98875,          91P     90
0.98875,1.,1.,82.2000016540289,101.8,148.45,82.2000016540289,         91P     91
101.8,154.8,0.353750000000002,0.98875,0.,0.,0.;                       91P     92
126,1,1,0,0,1,0,-4.56,-4.56,7.49,7.49,1.,1.,82.2000016540289,         93P     93
-18.7,148.45,82.2000016540289,101.8,148.45,-4.56,7.49,0.,0.,0.;       93P     94
126,1,1,0,0,1,0,-4.68,-4.68,7.37,7.37,1.,1.,82.2000016540289,         95P     95
101.8,154.8,82.2000016540289,-18.7,154.8,-4.68,7.37,0.,0.,0.;         95P     96
126,1,1,0,0,1,0,-0.69,-0.69,1.33,1.33,1.,1.,82.2000016540289,         97P     97
101.8,154.8,102.400001654029,101.8,154.8,-0.69,1.33,0.,0.,0.;         97P     98
126,1,1,0,0,1,0,-1.87,-1.87,10.18,10.18,1.,1.,102.400001654029,       99P     99
101.8,154.8,102.400001654029,-18.7,154.8,-1.87,10.18,0.,0.,0.;        99P    100
126,1,1,0,0,1,0,-0.353553390593272,-0.353553390593272,               101P    101
0.353553390593274,0.353553390593274,1.,1.,102.400001654029,          101P    102
101.8,154.8,107.400001654029,101.8,149.8,-0.353553390593272,         101P    103
0.353553390593274,0.,0.,0.;                                          101P    104
126,1,1,0,0,1,0,-10.18,-10.18,1.87,1.87,1.,1.,107.400001654029,      103P    105
-18.7,149.8,107.400001654029,101.8,149.8,-10.18,1.87,0.,0.,0.;       103P    106
126,4,2,0,0,0,0,-6.28318530717959,-6.28318530717959,                 105P    107
-6.28318530717959,-4.71238898038469,-4.71238898038469,               105P    108
-3.14159265358979,-3.14159265358979,-3.14159265358979,1.,            105P    109
0.707106781186544,1.,0.707106781186536,1.,104.900001654029,          105P    110
29.05,152.3,107.198098692885,29.0500000000001,150.001902961144,      105P    111
107.198098692885,25.8000000000001,150.001902961144,                  105P    112
107.198098692885,22.55,150.001902961144,104.900001654029,22.55,      105P    113
152.3,-6.28318530717959,-3.14159265358979,0.,0.,0.;                  105P    114
126,4,2,0,0,0,0,-3.14159265358979,-3.14159265358979,                 107P    115
-3.14159265358979,-1.5707963267949,-1.5707963267949,                 107P    116
-7.79472130949985D-15,-7.79472130949985D-15,                         107P    117
-7.79472130949985D-15,1.,0.707106781186543,1.,0.707106781186555,     107P    118
1.,104.900001654029,22.55,152.3,102.601904615173,22.55,              107P    119
154.598097038856,102.601904615173,25.8,154.598097038856,             107P    120
102.601904615173,29.05,154.598097038856,104.900001654029,29.05,      107P    121
152.3,-3.14159265358979,-7.79472130949985D-15,0.,0.,0.;              107P    122
126,1,1,0,0,1,0,-1.33,-1.33,0.690000165399997,0.690000165399997,     109P    123
1.,1.,107.400001654029,101.8,149.8,107.400001654029,101.8,           109P    124
129.599998346,-1.33,0.690000165399997,0.,0.,0.;                      109P    125
126,1,1,0,0,1,0,-8.295,-8.295,3.755,3.755,1.,1.,                     111P    126
107.400001654029,-18.7,129.599998346,107.400001654029,101.8,         111P    127
129.599998346,-8.295,3.755,0.,0.,0.;                                 111P    128
126,1,1,0,0,1,0,-0.988749999999998,-0.988749999999998,               113P    129
-0.353750000000002,-0.353750000000002,1.,1.,107.400001654029,        113P    130
101.8,129.599998346,101.050001654029,101.8,129.599998346,            113P    131
-0.988749999999998,-0.353750000000002,0.,0.,0.;                      113P    132
126,1,1,0,0,1,0,-6.40999999999999,-6.40999999999999,                 115P    133
5.64000000000001,5.64000000000001,1.,1.,101.050001654029,-18.7,      115P    134
129.599998346,101.050001654029,101.8,129.599998346,                  115P    135
-6.40999999999999,5.64000000000001,0.,0.,0.;                         115P    136
126,1,1,0,0,1,0,-8.76923076923074,-8.76923076923074,                 117P    137
-5.90646768120645,-5.90646768120645,1.,1.,104.900001654029,          117P    138
22.55,152.3,98.3210942784932,22.55,145.721092624464,                 117P    139
-8.76923076923074,-5.90646768120645,0.,0.,0.;                        117P    140
126,25,3,0,0,1,0,0.,0.,0.,0.,0.123494278217014,                      119P    141
0.123494278217014,0.246988556434028,0.246988556434028,               119P    142
0.370339806022552,0.370339806022552,0.493691055611076,               119P    143
0.493691055611076,0.617243997355072,0.617243997355072,               119P    144
0.740796939099068,0.740796939099068,0.864322822623858,               119P    145
0.864322822623858,0.987848706148649,0.987848706148649,               119P    146
1.11140896607387,1.11140896607387,1.23496922599908,                  119P    147
1.23496922599908,1.35848781048182,1.35848781048182,                  119P    148
1.48200639496455,1.48200639496455,1.48200639496455,                  119P    149
1.48200639496455,1.,1.,1.,1.,1.,1.,1.,1.,1.,1.,1.,1.,1.,1.,1.,       119P    150
1.,1.,1.,1.,1.,1.,1.,1.,1.,1.,1.,100.234070524726,                   119P    151
25.8000000000001,143.037874792984,100.234070524726,                  119P    152
26.2116475940568,143.037874792984,100.196934380107,                  119P    153
26.6483714451654,143.118010195871,100.037219500758,                  119P    154
27.448201111553,143.428840986783,99.9134311639746,                   119P    155
27.811614547123,143.658120408385,99.6047956022476,                   119P    156
28.3851632637878,144.160928644042,99.398757866351,                   119P    157
28.6347241140459,144.468785338041,98.903699776343,                   119P    158
28.9672250571169,145.104758074858,98.613573195446,29.05,             119P    159
145.43209861727,98.0281371280131,29.05,146.010559166995,             119P    160
97.6968111284789,28.9669822448146,146.297143905834,                  119P    161
97.0536851777128,28.6340765735839,146.785287103681,                  119P    162
96.7426396181957,28.3843663533245,146.987959711823,                  119P    163
96.234997880319,27.8109391024936,147.29093093806,                    119P    164
96.003554673781,27.4478405468471,147.412177497117,                   119P    165
95.6896388274837,26.6484107897244,147.568501048325,                  119P    166
95.6086113775096,26.2117529450827,147.604803801193,                  119P    167
95.6086113775096,25.388132466916,147.604803801193,                   119P    168
95.6896837290933,24.9513624802624,147.568481472607,                  119P    169
96.0037546779781,24.1517625853318,147.412075112745,                  119P    170
96.2353068331743,23.7886057021936,147.290764083908,                  119P    171
96.743031858322,23.215296921603,146.987708056116,                    119P    172
97.0540138435761,22.9657094208248,146.785054210505,                  119P    173
97.6969840630051,22.6329721482234,146.296996063115,                  119P    174
98.0282185927295,22.55,146.010478672937,98.3210942784932,22.55,      119P    175
145.721092624464,0.,1.48200639496455,0.,0.,0.;                       119P    176
126,9,3,0,0,1,0,1.48200639496455,1.48200639496455,                   121P    177
1.48200639496455,1.48200639496455,1.60539068475571,                  121P    178
1.60539068475571,1.72877497454686,1.72877497454686,                  121P    179
1.85223620137789,1.85223620137789,1.97569742820892,                  121P    180
1.97569742820892,1.97569742820892,1.97569742820892,1.,1.,1.,1.,      121P    181
1.,1.,1.,1.,1.,1.,98.3210942784932,22.55,145.721092624464,           121P    182
98.6136515372765,22.55,145.432021208889,98.903843963768,             121P    183
22.632818777386,145.104593475606,99.3989855774853,                   121P    184
22.9654818732925,144.468472165041,99.6050420130183,                  121P    185
23.2151609714093,144.160554769774,99.913594924242,                   121P    186
23.788823750626,143.6578259984,100.037320064973,24.152180946104,     121P    187
143.428650475819,100.19695365007,24.951846700842,                    121P    188
143.117967486256,100.234070524726,25.38846257723,                    121P    189
143.037874792984,100.234070524726,25.8,143.037874792984,             121P    190
1.48200639496455,1.97569742820892,0.,0.,0.;                          121P    191
126,8,2,0,1,0,0,-3.14159265358979,-3.14159265358979,                 123P    192
-3.14159265358979,-1.5707963267949,-1.5707963267949,0.,0.,           123P    193
1.5707963267949,1.5707963267949,3.14159265358979,                    123P    194
3.14159265358979,3.14159265358979,1.,0.707106781186551,1.,           123P    195
0.707106781186546,1.,0.707106781186546,1.,0.707106781186546,1.,      123P    196
91.5561024477881,101.8,129.249523371876,101.181102447788,101.8,      123P    197
129.249523371876,101.181102447788,101.8,138.874523371876,            123P    198
101.181102447788,101.8,148.499523371876,91.5561024477881,101.8,      123P    199
148.499523371876,81.9311024477881,101.8,148.499523371876,            123P    200
81.9311024477881,101.8,138.874523371876,81.9311024477881,101.8,      123P    201
129.249523371876,91.5561024477881,101.8,129.249523371876,            123P    202
-3.14159265358979,3.14159265358979,0.,0.,0.;                         123P    203
126,1,1,0,0,1,0,8.72440944881889,8.72440944881889,                   125P    204
21.3753280839895,21.3753280839895,1.,1.,91.5561024477881,101.8,      125P    205
129.249523371876,91.5561024477881,-18.7,129.249523371876,            125P    206
8.72440944881889,21.3753280839895,0.,0.,0.;                          125P    207
126,1,1,0,0,1,0,0.0600001240499957,0.0600001240499957,               127P    208
1.05999995865,1.05999995865,1.,1.,101.050001654029,101.8,            127P    209
129.599998346,101.050001654029,101.8,119.6,0.0600001240499957,       127P    210
1.05999995865,0.,0.,0.;                                              127P    211
126,1,1,0,0,1,0,-8.295,-8.295,3.755,3.755,1.,1.,                     129P    212
101.050001654029,-18.7,119.6,101.050001654029,101.8,119.6,           129P    213
-8.295,3.755,0.,0.,0.;                                               129P    214
126,1,1,0,0,1,0,-1.195,-1.195,-0.509999999999998,                    131P    215
-0.509999999999998,1.,1.,101.050001654029,101.8,119.6,               131P    216
94.2000016540288,101.8,119.6,-1.195,-0.509999999999998,0.,0.,0.;     131P    217
126,1,1,0,0,1,0,-1.87,-1.87,10.18,10.18,1.,1.,94.2000016540288,      133P    218
101.8,119.6,94.2000016540288,-18.7,119.6,-1.87,10.18,0.,0.,0.;       133P    219
126,2,2,0,0,0,0,-0.785398163397448,-0.785398163397448,               135P    220
-0.785398163397448,0.785398163397448,0.785398163397448,              135P    221
0.785398163397448,1.,0.707106781186549,1.,94.2000016540288,          135P    222
101.8,119.6,72.2000016540288,101.8,119.6,72.2000016540288,101.8,     135P    223
141.6,-0.785398163397448,0.785398163397448,0.,0.,0.;                 135P    224
126,1,1,0,0,1,0,-10.18,-10.18,1.87,1.87,1.,1.,72.2000016540288,      137P    225
-18.7,141.6,72.2000016540288,101.8,141.6,-10.18,1.87,0.,0.,0.;       137P    226
126,1,1,0,0,1,0,0.510000000000003,0.510000000000003,1.195,1.195,     139P    227
1.,1.,72.2000016540288,101.8,141.6,72.2000016540288,101.8,           139P    228
148.45,0.510000000000003,1.195,0.,0.,0.;                             139P    229
126,1,1,0,0,1,0,-4.68,-4.68,7.37,7.37,1.,1.,72.2000016540288,        141P    230
101.8,148.45,72.2000016540288,-18.7,148.45,-4.68,7.37,0.,0.,0.;      141P    231
126,1,1,0,0,1,0,-1.03500000000001,-1.03500000000001,                 143P    232
-0.0350000000000019,-0.0350000000000019,1.,1.,72.2000016540288,      143P    233
101.8,148.45,82.2000016540289,101.8,148.45,-1.03500000000001,        143P    234
-0.0350000000000019,0.,0.,0.;                                        143P    235
128,1,1,1,1,0,0,1,0,0,-1.52000000000001,-1.52000000000001,2.,2.,     145P    236
-1.52,-1.52,2.,2.,1.,1.,1.,1.,72.2000016540288,-18.7,119.6,          145P    237
107.400001654029,-18.7,119.6,72.2000016540288,-18.7,154.8,           145P    238
107.400001654029,-18.7,154.8,-1.52000000000001,2.,-1.52,2.;          145P    239
128,1,1,1,1,0,0,1,0,0,-0.317500000000001,-0.317500000000001,         147P    240
0.317500000000001,0.317500000000001,-4.56,-4.56,7.49,7.49,1.,1.,     147P    241
1.,1.,82.2000016540289,-18.7,148.45,82.2000016540289,-18.7,          147P    242
154.8,82.2000016540289,101.8,148.45,82.2000016540289,101.8,          147P    243
154.8,-0.317500000000001,0.317500000000001,-4.56,7.49;               147P    244
128,1,1,1,1,0,0,1,0,0,-10.18,-10.18,1.87,1.87,                       149P    245
-0.520000000000002,-0.520000000000002,1.5,1.5,1.,1.,1.,1.,           149P    246
82.2000016540289,101.8,154.8,82.2000016540289,-18.7,154.8,           149P    247
102.400001654029,101.8,154.8,102.400001654029,-18.7,154.8,           149P    248
-10.18,1.87,-0.520000000000002,1.5;                                  149P    249
128,1,1,1,1,0,0,1,0,0,-0.353553390593274,-0.353553390593274,         151P    250
0.353553390593275,0.353553390593275,-10.18,-10.18,1.87,1.87,1.,      151P    251
1.,1.,1.,102.400001654029,-18.7,154.8,107.400001654029,-18.7,        151P    252
149.8,102.400001654029,101.8,154.8,107.400001654029,101.8,149.8,     151P    253
-0.353553390593274,0.353553390593275,-10.18,1.87;                    151P    254
128,1,1,1,1,0,0,1,0,0,-1.87,-1.87,10.18,10.18,                       153P    255
-0.520000165399999,-0.520000165399999,1.5,1.5,1.,1.,1.,1.,           153P    256
107.400001654029,-18.7,129.599998346,107.400001654029,101.8,         153P    257
129.599998346,107.400001654029,-18.7,149.8,107.400001654029,         153P    258
101.8,149.8,-1.87,10.18,-0.520000165399999,1.5;                      153P    259
128,1,1,1,1,0,0,1,0,0,-6.40999999999999,-6.40999999999999,           155P    260
5.64000000000001,5.64000000000001,-0.317500000000001,                155P    261
-0.317500000000001,0.317500000000001,0.317500000000001,1.,1.,1.,     155P    262
1.,101.050001654029,-18.7,129.599998346,101.050001654029,101.8,      155P    263
129.599998346,107.400001654029,-18.7,129.599998346,                  155P    264
107.400001654029,101.8,129.599998346,-6.40999999999999,              155P    265
5.64000000000001,-0.317500000000001,0.317500000000001;               155P    266
128,1,8,1,2,0,1,0,0,1,-8.76923076923074,-8.76923076923074,           157P    267
-5.72615072542919,-5.72615072542919,-3.14159265358979,               157P    268
-3.14159265358979,-3.14159265358979,-1.5707963267949,                157P    269
-1.5707963267949,0.,0.,1.5707963267949,1.5707963267949,              157P    270
3.14159265358979,3.14159265358979,3.14159265358979,1.,1.,            157P    271
0.707106781186548,0.707106781186548,1.,1.,0.707106781186548,         157P    272
0.707106781186548,1.,1.,0.707106781186548,0.707106781186548,1.,      157P    273
1.,0.707106781186548,0.707106781186548,1.,1.,104.900001654029,       157P    274
22.55,152.3,97.9067084163659,22.55,145.306706762337,                 157P    275
102.601904615173,22.55,154.598097038856,95.6086113775096,22.55,      157P    276
147.604803801193,102.601904615173,25.8,154.598097038856,             157P    277
95.6086113775096,25.8,147.604803801193,102.601904615173,29.05,       157P    278
154.598097038856,95.6086113775096,29.05,147.604803801193,            157P    279
104.900001654029,29.05,152.3,97.9067084163659,29.05,                 157P    280
145.306706762337,107.198098692885,29.05,150.001902961144,            157P    281
100.204805455222,29.05,143.008609723481,107.198098692885,25.8,       157P    282
150.001902961144,100.204805455222,25.8,143.008609723481,             157P    283
107.198098692885,22.55,150.001902961144,100.204805455222,22.55,      157P    284
143.008609723481,104.900001654029,22.55,152.3,97.9067084163659,      157P    285
22.55,145.306706762337,-8.76923076923074,-5.72615072542919,          157P    286
-3.14159265358979,3.14159265358979;                                  157P    287
128,1,8,1,2,0,1,0,0,1,8.72440944881889,8.72440944881889,             159P    288
21.3753280839895,21.3753280839895,-3.14159265358979,                 159P    289
-3.14159265358979,-3.14159265358979,-1.5707963267949,                159P    290
-1.5707963267949,0.,0.,1.5707963267949,1.5707963267949,              159P    291
3.14159265358979,3.14159265358979,3.14159265358979,1.,1.,            159P    292
0.707106781186548,0.707106781186548,1.,1.,0.707106781186548,         159P    293
0.707106781186548,1.,1.,0.707106781186548,0.707106781186548,1.,      159P    294
1.,0.707106781186548,0.707106781186548,1.,1.,91.5561024477881,       159P    295
101.8,129.249523371876,91.5561024477881,-18.7,129.249523371876,      159P    296
101.181102447788,101.8,129.249523371876,101.181102447788,-18.7,      159P    297
129.249523371876,101.181102447788,101.8,138.874523371876,            159P    298
101.181102447788,-18.7,138.874523371876,101.181102447788,101.8,      159P    299
148.499523371876,101.181102447788,-18.7,148.499523371876,            159P    300
91.5561024477881,101.8,148.499523371876,91.5561024477881,-18.7,      159P    301
148.499523371876,81.9311024477881,101.8,148.499523371876,            159P    302
81.9311024477881,-18.7,148.499523371876,81.9311024477881,101.8,      159P    303
138.874523371876,81.9311024477881,-18.7,138.874523371876,            159P    304
81.9311024477881,101.8,129.249523371876,81.9311024477881,-18.7,      159P    305
129.249523371876,91.5561024477881,101.8,129.249523371876,            159P    306
91.5561024477881,-18.7,129.249523371876,8.72440944881889,            159P    307
21.3753280839895,-3.14159265358979,3.14159265358979;                 159P    308
128,1,1,1,1,0,0,1,0,0,-6.41,-6.41,5.64000000000001,                  161P    309
5.64000000000001,-0.259999917299997,-0.259999917299997,              161P    310
0.739999917300004,0.739999917300004,1.,1.,1.,1.,                     161P    311
101.050001654029,-18.7,119.6,101.050001654029,101.8,119.6,           161P    312
101.050001654029,-18.7,129.599998346,101.050001654029,101.8,         161P    313
129.599998346,-6.41,5.64000000000001,-0.259999917299997,             161P    314
0.739999917300004;                                                   161P    315
128,1,1,1,1,0,0,1,0,0,0.679999999999998,0.679999999999998,           163P    316
1.36500000000001,1.36500000000001,-10.18,-10.18,1.87,1.87,1.,1.,     163P    317
1.,1.,101.050001654029,-18.7,119.6,94.2000016540288,-18.7,119.6,     163P    318
101.050001654029,101.8,119.6,94.2000016540288,101.8,119.6,           163P    319
0.679999999999998,1.36500000000001,-10.18,1.87;                      163P    320
128,1,2,1,2,0,0,0,0,0,-5.09,-5.09,0.935000000000001,                 165P    321
0.935000000000001,-0.785398163397448,-0.785398163397448,             165P    322
-0.785398163397448,0.785398163397448,0.785398163397448,              165P    323
0.785398163397448,1.,1.,0.707106781186548,0.707106781186548,1.,      165P    324
1.,94.2000016540288,101.8,119.6,94.2000016540288,-18.7,119.6,        165P    325
72.2000016540288,101.8,119.6,72.2000016540288,-18.7,119.6,           165P    326
72.2000016540288,101.8,141.6,72.2000016540288,-18.7,141.6,-5.09,     165P    327
0.935000000000001,-0.785398163397448,0.785398163397448;              165P    328
128,1,1,1,1,0,0,1,0,0,-1.365,-1.365,-0.680000000000003,              167P    329
-0.680000000000003,-10.18,-10.18,1.87,1.87,1.,1.,1.,1.,              167P    330
72.2000016540288,-18.7,141.6,72.2000016540288,-18.7,148.45,          167P    331
72.2000016540288,101.8,141.6,72.2000016540288,101.8,148.45,          167P    332
-1.365,-0.680000000000003,-10.18,1.87;                               167P    333
128,1,1,1,1,0,0,1,0,0,-4.56,-4.56,7.49,7.49,-0.790000000000001,      169P    334
-0.790000000000001,0.210000000000006,0.210000000000006,1.,1.,1.,     169P    335
1.,82.2000016540289,-18.7,148.45,82.2000016540289,101.8,148.45,      169P    336
72.2000016540288,-18.7,148.45,72.2000016540288,101.8,148.45,         169P    337
-4.56,7.49,-0.790000000000001,0.210000000000006;                     169P    338
128,1,1,1,1,0,0,1,0,0,-1.86,-1.86,1.66,1.66,-1.86000000000001,       171P    339
-1.86000000000001,1.66,1.66,1.,1.,1.,1.,72.2000016540288,101.8,      171P    340
119.6,72.2000016540288,101.8,154.8,107.400001654029,101.8,119.6,     171P    341
107.400001654029,101.8,154.8,-1.86,1.66,-1.86000000000001,1.66;      171P    342
502,26,94.2000016540288,-18.7,119.6,72.2000016540288,-18.7,          173P    343
141.6,101.050001654029,-18.7,119.6,101.050001654029,-18.7,           173P    344
129.599998346,107.400001654029,-18.7,129.599998346,                  173P    345
107.400001654029,-18.7,149.8,102.400001654029,-18.7,154.8,           173P    346
82.2000016540289,-18.7,154.8,82.2000016540289,-18.7,148.45,          173P    347
72.2000016540288,-18.7,148.45,91.5561024477881,-18.7,                173P    348
129.249523371876,82.2000016540289,101.8,148.45,82.2000016540289,     173P    349
101.8,154.8,102.400001654029,101.8,154.8,107.400001654029,101.8,     173P    350
149.8,104.900001654029,29.0500000000001,152.3,104.900001654029,      173P    351
22.55,152.3,107.400001654029,101.8,129.599998346,                    173P    352
101.050001654029,101.8,129.599998346,98.3210942784932,22.55,         173P    353
145.721092624464,100.234070524726,25.8,143.037874792984,             173P    354
91.5561024477881,101.8,129.249523371876,101.050001654029,101.8,      173P    355
119.6,94.2000016540288,101.8,119.6,72.2000016540288,101.8,141.6,     173P    356
72.2000016540288,101.8,148.45;                                       173P    357
504,38,69,173,1,173,2,71,173,1,173,3,73,173,3,173,4,75,173,4,        175P    358
173,5,77,173,5,173,6,79,173,7,173,6,81,173,7,173,8,83,173,8,173,     175P    359
9,85,173,9,173,10,87,173,10,173,2,89,173,11,173,11,91,173,12,        175P    360
173,13,93,173,9,173,12,95,173,13,173,8,97,173,13,173,14,99,173,      175P    361
14,173,7,101,173,14,173,15,103,173,6,173,15,105,173,16,173,17,       175P    362
107,173,17,173,16,109,173,15,173,18,111,173,5,173,18,113,173,18,     175P    363
173,19,115,173,4,173,19,117,173,17,173,20,119,173,21,173,20,121,     175P    364
173,20,173,21,123,173,22,173,22,125,173,22,173,11,127,173,19,        175P    365
173,23,129,173,3,173,23,131,173,23,173,24,133,173,24,173,1,135,      175P    366
173,24,173,25,137,173,2,173,25,139,173,25,173,26,141,173,26,173,     175P    367
10,143,173,26,173,12;                                                175P    368
406,1,13HCorner Bottom;                                              177P    369
314,18.8235294117647,23.1372549019608,58.8235294117647,23HPlasti     179P    370
c - Glossy (Blue);                                                   179P    371
314,62.7450980392157,62.7450980392157,62.7450980392157,13HSteel      181P    372
- Satin;                                                             181P    373
S      1G      2D    182P    373                                        T      1
