                                                                        S      1
,,20HFlangeBearingAdapter,20HFlangeBearingAdapter,7Hunknown,7Hunknown,  G      1
32,38,7,99,15,,1.,2,2HMM,1,0.08,15H20150904.145729,0.01,10000.,7HunknownG      2
,7Hunknown,11,0,;                                                       G      3
     186       1                                                00000000D      1
     186            -121       1       0                               0D      2
     514       2                                                00010000D      3
     514                       1       1                               0D      4
     510       3                                                00010000D      5
     510            -121       1       1                               0D      6
     510       4                                                00010000D      7
     510            -121       1       1                               0D      8
     510       5                                                00010000D      9
     510            -121       1       1                               0D     10
     510       6                                                00010000D     11
     510            -121       1       1                               0D     12
     510       7                                                00010000D     13
     510            -121       1       1                               0D     14
     510       8                                                00010000D     15
     510            -121       1       1                               0D     16
     510       9                                                00010000D     17
     510            -121       1       1                               0D     18
     510      10                                                00010000D     19
     510            -121       1       1                               0D     20
     510      11                                                00010000D     21
     510            -121       1       1                               0D     22
     508      12                                                00010000D     23
     508                       2       1                               0D     24
     508      14                                                00010000D     25
     508                       2       1                               0D     26
     508      16                                                00010000D     27
     508                       2       1                               0D     28
     508      18                                                00010000D     29
     508                       1       1                               0D     30
     508      19                                                00010000D     31
     508                       1       1                               0D     32
     508      20                                                00010000D     33
     508                       3       1                               0D     34
     508      23                                                00010000D     35
     508                       1       1                               0D     36
     508      24                                                00010000D     37
     508                       1       1                               0D     38
     508      25                                                00010000D     39
     508                       1       1                               0D     40
     508      26                                                00010000D     41
     508                       2       1                               0D     42
     508      28                                                00010000D     43
     508                       1       1                               0D     44
     508      29                                                00010000D     45
     508                       1       1                               0D     46
     126      30                                                00010000D     47
     126       0              24       0                               0D     48
     126      54                                                00010000D     49
     126       0              25       0                               0D     50
     126      79                                                00010000D     51
     126       0               4       0                               0D     52
     126      83                                                00010000D     53
     126       0              15       0                               0D     54
     126      98                                                00010000D     55
     126       0              26       0                               0D     56
     126     124                                                00010000D     57
     126       0              14       0                               0D     58
     126     138                                                00010000D     59
     126       0               8       0                               0D     60
     126     146                                                00010000D     61
     126       0               5       0                               0D     62
     126     151                                                00010000D     63
     126       0               6       0                               0D     64
     126     157                                                00010000D     65
     126       0               7       0                               0D     66
     126     164                                                00010000D     67
     126       0               5       0                               0D     68
     126     169                                                00010000D     69
     126       0               5       0                               0D     70
     126     174                                                00010000D     71
     126       0               4       0                               0D     72
     126     178                                                00010000D     73
     126       0               6       0                               0D     74
     126     184                                                00010000D     75
     126       0               7       0                               0D     76
     126     191                                                00010000D     77
     126       0               5       0                               0D     78
     126     196                                                00010000D     79
     126       0               7       0                               0D     80
     126     203                                                00010000D     81
     126       0               4       0                               0D     82
     126     207                                                00010000D     83
     126       0               4       0                               0D     84
     126     211                                                00010000D     85
     126       0               7       0                               0D     86
     126     218                                                00010000D     87
     126       0               5       0                               0D     88
     126     223                                                00010000D     89
     126       0              10       0                               0D     90
     126     233                                                00010000D     91
     126       0               6       0                               0D     92
     126     239                                                00010000D     93
     126       0               7       0                               0D     94
     126     246                                                00010000D     95
     126       0               4       0                               0D     96
     128     250                                                00010000D     97
     128       0    -121      19       0                               0D     98
     128     269                                                00010000D     99
     128       0    -121      22       0                               0D    100
     128     291                                                00010000D    101
     128       0    -121      16       0                               0D    102
     128     307                                                00010000D    103
     128       0    -121       3       0                               0D    104
     128     310                                                00010000D    105
     128       0    -121       4       0                               0D    106
     128     314                                                00010000D    107
     128       0    -121      15       0                               0D    108
     128     329                                                00010000D    109
     128       0    -121       3       0                               0D    110
     128     332                                                00010000D    111
     128       0    -121      17       0                               0D    112
     128     349                                                00010000D    113
     128       0    -121       3       0                               0D    114
     502     352                                                00010000D    115
     502                      10       1                               0D    116
     504     362                                                00010001D    117
     504                       7       1                               0D    118
     406     369                                                00000000D    119
     406                       1      15                               0D    120
     314     370                                                00000200D    121
     314                       2       0                               0D    122
186,3,1,0,0,1,119;                                                     1P      1
514,9,5,1,7,1,9,1,11,1,13,1,15,1,17,1,19,1,21,1;                       3P      2
510,97,1,1,23;                                                         5P      3
510,99,1,1,25;                                                         7P      4
510,101,1,1,27;                                                        9P      5
510,103,1,1,29;                                                       11P      6
510,105,1,1,31;                                                       13P      7
510,107,2,1,33,35;                                                    15P      8
510,109,2,1,37,39;                                                    17P      9
510,111,1,1,41;                                                       19P     10
510,113,2,1,43,45;                                                    21P     11
508,7,0,117,1,0,0,0,117,2,0,0,0,117,3,1,0,0,117,4,0,0,0,117,5,0,      23P     12
0,0,117,6,0,0,0,117,3,0,0;                                            23P     13
508,7,0,117,7,1,0,0,117,8,1,0,0,117,9,1,0,0,117,10,1,0,0,117,11,      25P     14
1,0,0,117,8,0,0,0,117,12,1,0;                                         25P     15
508,7,0,117,11,0,0,0,117,10,0,0,0,117,13,1,0,0,117,14,0,0,0,117,      27P     16
15,0,0,0,117,13,0,0,0,117,9,0,0;                                      27P     17
508,2,0,117,7,0,0,0,117,12,0,0;                                       29P     18
508,2,0,117,16,1,0,0,117,17,1,0;                                      31P     19
508,11,0,117,16,0,0,0,117,17,0,0,0,117,18,1,0,0,117,5,1,0,0,117,      33P     20
19,1,0,0,117,20,1,0,0,117,21,1,0,0,117,19,0,0,0,117,4,1,0,0,117,      33P     21
6,1,0,0,117,18,0,0;                                                   33P     22
508,2,0,117,1,1,0,0,117,2,1,0;                                        35P     23
508,1,0,117,22,0,0;                                                   37P     24
508,2,0,117,21,0,0,0,117,20,0,0;                                      39P     25
508,5,0,117,23,0,0,0,117,24,0,0,0,117,25,1,0,0,117,22,1,0,0,117,      41P     26
25,0,0;                                                               41P     27
508,2,0,117,23,1,0,0,117,24,1,0;                                      43P     28
508,2,0,117,14,1,0,0,117,15,1,0;                                      45P     29
126,17,3,0,0,1,0,0.,0.,0.,0.,0.122571633181949,                       47P     30
0.122571633181949,0.245143266363898,0.245143266363898,                47P     31
0.367713719347523,0.367713719347523,0.490284172331148,                47P     32
0.490284172331148,0.612854625314773,0.612854625314773,                47P     33
0.735425078298398,0.735425078298398,0.857996711480347,                47P     34
0.857996711480347,0.980568344662296,0.980568344662296,                47P     35
0.980568344662296,0.980568344662296,1.,1.,1.,1.,1.,1.,1.,1.,1.,       47P     36
1.,1.,1.,1.,1.,1.,1.,1.,1.,3.25,5.00000007450581,                     47P     37
24.8887022562447,3.25,4.59142796389931,24.8887022562447,              47P     38
3.16825273208332,4.15593961717641,24.899801199344,                    47P     39
2.83643655993998,3.35534469706,24.9397785190511,                      47P     40
2.58639250275449,2.99019849954773,24.9680674205425,                   47P     41
2.00980435085176,2.41361034764501,25.0210811467506,                   47P     42
1.64465694819807,2.16356411489556,25.0492662172387,                   47P     43
0.844057940650125,1.83174635004201,25.0890055738993,                  47P     44
0.408568176612084,1.75000007450581,25.1,-0.408568176612083,           47P     45
1.75000007450581,25.1,-0.844057940650124,1.83174635004201,            47P     46
25.0890055738993,-1.64465694819807,2.16356411489556,                  47P     47
25.0492662172388,-2.00980435085176,2.41361034764501,                  47P     48
25.0210811467506,-2.58639250275449,2.99019849954773,                  47P     49
24.9680674205425,-2.83643655993998,3.35534469706,                     47P     50
24.9397785190511,-3.16825273208332,4.15593961717641,                  47P     51
24.899801199344,-3.25,4.59142796389931,24.8887022562447,-3.25,        47P     52
5.00000007450581,24.8887022562447,0.,0.980568344662296,0.,0.,0.;      47P     53
126,17,3,0,0,1,0,0.980568344662296,0.980568344662296,                 49P     54
0.980568344662296,0.980568344662296,1.10313997784424,                 49P     55
1.10313997784424,1.22571161102619,1.22571161102619,                   49P     56
1.34828206400982,1.34828206400982,1.47085251699344,                   49P     57
1.47085251699344,1.59342296997707,1.59342296997707,                   49P     58
1.71599342296069,1.71599342296069,1.83856505614264,                   49P     59
1.83856505614264,1.96113668932459,1.96113668932459,                   49P     60
1.96113668932459,1.96113668932459,1.,1.,1.,1.,1.,1.,1.,1.,1.,1.,      49P     61
1.,1.,1.,1.,1.,1.,1.,1.,-3.25,5.00000007450581,24.8887022562447,      49P     62
-3.25,5.4085721851123,24.8887022562447,-3.16825273208332,             49P     63
5.8440605318352,24.899801199344,-2.83643655993998,                    49P     64
6.64465545195161,24.9397785190511,-2.58639250275449,                  49P     65
7.00980164946388,24.9680674205425,-2.00980435085176,                  49P     66
7.5863898013666,25.0210811467506,-1.64465694819807,                   49P     67
7.83643603411606,25.0492662172388,-0.844057940650125,                 49P     68
8.16825379896961,25.0890055738993,-0.408568176612084,                 49P     69
8.25000007450581,25.1,0.408568176612083,8.25000007450581,25.1,        49P     70
0.844057940650123,8.16825379896961,25.0890055738993,                  49P     71
1.64465694819807,7.83643603411606,25.0492662172388,                   49P     72
2.00980435085176,7.5863898013666,25.0210811467506,                    49P     73
2.58639250275449,7.00980164946388,24.9680674205425,                   49P     74
2.83643655993998,6.64465545195161,24.9397785190511,                   49P     75
3.16825273208332,5.8440605318352,24.899801199344,3.25,                49P     76
5.4085721851123,24.8887022562447,3.25,5.00000007450581,               49P     77
24.8887022562447,0.980568344662296,1.96113668932459,0.,0.,0.;         49P     78
126,1,1,0,0,1,0,12.034245459617,12.034245459617,                      51P     79
27.3503699249984,27.3503699249984,1.,1.,-3.25,5.00000007450581,       51P     80
24.8887022562447,-3.25,5.00000007450581,-24.8887022562447,            51P     81
12.034245459617,27.3503699249984,0.,0.,0.;                            51P     82
126,9,3,0,0,1,0,1.47085251699344,1.47085251699344,                    53P     83
1.47085251699344,1.47085251699344,1.59342296997707,                   53P     84
1.59342296997707,1.71599342296069,1.71599342296069,                   53P     85
1.83856505614264,1.83856505614264,1.96113668932459,                   53P     86
1.96113668932459,1.96113668932459,1.96113668932459,1.,1.,1.,1.,       53P     87
1.,1.,1.,1.,1.,1.,-6.93889390390723D-16,8.25000007450581,-25.1,       53P     88
-0.408568176612085,8.25000007450581,-25.1,-0.844057940650126,         53P     89
8.16825379896961,-25.0890055738993,-1.64465694819807,                 53P     90
7.83643603411606,-25.0492662172388,-2.00980435085176,                 53P     91
7.5863898013666,-25.0210811467506,-2.58639250275449,                  53P     92
7.00980164946388,-24.9680674205425,-2.83643655993998,                 53P     93
6.64465545195161,-24.9397785190511,-3.16825273208332,                 53P     94
5.8440605318352,-24.899801199344,-3.25,5.4085721851123,               53P     95
-24.8887022562447,-3.25,5.00000007450581,-24.8887022562447,           53P     96
1.47085251699344,1.96113668932459,0.,0.,0.;                           53P     97
126,17,3,0,0,1,0,0.490284172331148,0.490284172331148,                 55P     98
0.490284172331148,0.490284172331148,0.612854625314773,                55P     99
0.612854625314773,0.735425078298398,0.735425078298398,                55P    100
0.857996711480347,0.857996711480347,0.980568344662296,                55P    101
0.980568344662296,1.10313997784424,1.10313997784424,                  55P    102
1.22571161102619,1.22571161102619,1.34828206400982,                   55P    103
1.34828206400982,1.47085251699344,1.47085251699344,                   55P    104
1.47085251699344,1.47085251699344,1.,1.,1.,1.,1.,1.,1.,1.,1.,1.,      55P    105
1.,1.,1.,1.,1.,1.,1.,1.,7.63278329429795D-16,1.75000007450581,        55P    106
-25.1,0.408568176612084,1.75000007450581,-25.1,                       55P    107
0.844057940650125,1.83174635004201,-25.0890055738993,                 55P    108
1.64465694819807,2.16356411489556,-25.0492662172388,                  55P    109
2.00980435085176,2.41361034764501,-25.0210811467506,                  55P    110
2.58639250275449,2.99019849954773,-24.9680674205425,                  55P    111
2.83643655993998,3.35534469706,-24.9397785190511,                     55P    112
3.16825273208332,4.15593961717641,-24.899801199344,3.25,              55P    113
4.59142796389931,-24.8887022562447,3.25,5.4085721851123,              55P    114
-24.8887022562447,3.16825273208332,5.8440605318352,                   55P    115
-24.899801199344,2.83643655993998,6.64465545195161,                   55P    116
-24.9397785190511,2.58639250275449,7.00980164946388,                  55P    117
-24.9680674205425,2.00980435085176,7.5863898013666,                   55P    118
-25.0210811467506,1.64465694819807,7.83643603411606,                  55P    119
-25.0492662172388,0.844057940650125,8.16825379896961,                 55P    120
-25.0890055738993,0.408568176612083,8.25000007450581,-25.1,           55P    121
-5.55111512312578D-16,8.25000007450581,-25.1,0.490284172331148,       55P    122
1.47085251699344,0.,0.,0.;                                            55P    123
126,9,3,0,0,1,0,0.,0.,0.,0.,0.122571633181949,0.122571633181949,      57P    124
0.245143266363898,0.245143266363898,0.367713719347523,                57P    125
0.367713719347523,0.490284172331148,0.490284172331148,                57P    126
0.490284172331148,0.490284172331148,1.,1.,1.,1.,1.,1.,1.,1.,1.,       57P    127
1.,-3.25,5.00000007450581,-24.8887022562447,-3.25,                    57P    128
4.59142796389931,-24.8887022562447,-3.16825273208332,                 57P    129
4.15593961717641,-24.899801199344,-2.83643655993998,                  57P    130
3.35534469706,-24.9397785190511,-2.58639250275448,                    57P    131
2.99019849954773,-24.9680674205425,-2.00980435085176,                 57P    132
2.41361034764501,-25.0210811467506,-1.64465694819807,                 57P    133
2.16356411489555,-25.0492662172388,-0.844057940650123,                57P    134
1.83174635004201,-25.0890055738993,-0.408568176612082,                57P    135
1.75000007450581,-25.1,1.11022302462516D-15,1.75000007450581,         57P    136
-25.1,0.,0.490284172331148,0.,0.,0.;                                  57P    137
126,6,2,0,0,0,0,-3.14159265358979,-3.14159265358979,                  59P    138
-3.14159265358979,-1.5707963267949,-1.5707963267949,0.,0.,            59P    139
1.5707963267949,1.5707963267949,1.5707963267949,1.,                   59P    140
0.707106781186548,1.,0.707106781186548,1.,0.707106781186548,1.,       59P    141
10.7,58.,1.4389108211202D-14,10.7,58.,10.7,-1.9655581126315D-15,      59P    142
58.,10.7,-10.7,58.,10.7,-10.7,58.,1.0457991985939D-14,-10.7,58.,      59P    143
-10.7,6.55186037543836D-16,58.,-10.7,-3.14159265358979,               59P    144
1.5707963267949,0.,0.,0.;                                             59P    145
126,2,2,0,0,0,0,-1.5707963267949,-1.5707963267949,                    61P    146
-1.5707963267949,1.40998324127395D-15,1.40998324127395D-15,           61P    147
1.40998324127395D-15,1.,0.707106781186543,1.,0.,58.,-10.7,0.,         61P    148
58.,-12.7,0.,56.,-12.7,-1.5707963267949,1.40998324127395D-15,0.,      61P    149
0.,0.;                                                                61P    150
126,2,2,0,0,0,0,-1.5707963267949,-1.5707963267949,                    63P    151
-1.5707963267949,1.22464679914735D-16,1.22464679914735D-16,           63P    152
1.22464679914735D-16,1.,0.707106781186548,1.,                         63P    153
7.77650717458571D-16,56.,-12.7,-12.7,56.,-12.7,-12.7,56.,             63P    154
1.13242748511766D-14,-1.5707963267949,1.22464679914735D-16,0.,        63P    155
0.,0.;                                                                63P    156
126,4,2,0,0,0,0,1.22464679914735D-16,1.22464679914735D-16,            65P    157
1.22464679914735D-16,1.5707963267949,1.5707963267949,                 65P    158
3.14159265358979,3.14159265358979,3.14159265358979,1.,                65P    159
0.707106781186548,1.,0.707106781186548,1.,-12.7,56.,                  65P    160
1.13242748511766D-14,-12.7,56.,12.7,-2.33295215237571D-15,56.,        65P    161
12.7,12.7,56.,12.7,12.7,56.,1.44348777210109D-14,                     65P    162
1.22464679914735D-16,3.14159265358979,0.,0.,0.;                       65P    163
126,2,2,0,0,0,0,-3.14159265358979,-3.14159265358979,                  67P    164
-3.14159265358979,-1.5707963267949,-1.5707963267949,                  67P    165
-1.5707963267949,1.,0.707106781186548,1.,12.7,56.,                    67P    166
1.13242748511766D-14,12.7,56.,-12.7,7.77650717458571D-16,56.,         67P    167
-12.7,-3.14159265358979,-1.5707963267949,0.,0.,0.;                    67P    168
126,2,2,0,0,0,0,1.5707963267949,1.5707963267949,1.5707963267949,      69P    169
3.14159265358979,3.14159265358979,3.14159265358979,1.,                69P    170
0.707106781186547,1.,6.55186037543836D-16,58.,-10.7,10.7,58.,         69P    171
-10.7,10.7,58.,1.17683640610267D-14,1.5707963267949,                  69P    172
3.14159265358979,0.,0.,0.;                                            69P    173
126,1,1,0,0,1,0,-1.33858267716535,-1.33858267716535,                  71P    174
1.49606299212598,1.49606299212598,1.,1.,-12.7,56.,                    71P    175
1.13242748511766D-14,-12.7,20.,3.33066907387547D-15,                  71P    176
-1.33858267716535,1.49606299212598,0.,0.,0.;                          71P    177
126,4,2,0,0,0,0,0.,0.,0.,1.5707963267949,1.5707963267949,             73P    178
3.14159265358979,3.14159265358979,3.14159265358979,1.,                73P    179
0.707106781186548,1.,0.707106781186549,1.,12.7,20.,                   73P    180
3.33066907387547D-15,12.7,20.,12.7,7.77650717458569D-16,20.,          73P    181
12.7,-12.7,20.,12.7,-12.7,20.,4.88597050879261D-15,0.,                73P    182
3.14159265358979,0.,0.,0.;                                            73P    183
126,4,2,0,0,0,0,3.14159265358979,3.14159265358979,                    75P    184
3.14159265358979,4.71238898038469,4.71238898038469,                   75P    185
6.28318530717959,6.28318530717959,6.28318530717959,1.,                75P    186
0.707106781186548,1.,0.707106781186548,1.,-12.7,20.,                  75P    187
4.88597050879261D-15,-12.7,20.,-12.7,-2.33295215237571D-15,20.,       75P    188
-12.7,12.7,20.,-12.7,12.7,20.,2.20066204041191D-16,                   75P    189
3.14159265358979,6.28318530717959,0.,0.,0.;                           75P    190
126,4,2,0,0,0,0,0.,0.,0.,1.5707963267949,1.5707963267949,             77P    191
3.14159265358979,3.14159265358979,3.14159265358979,1.,                77P    192
0.707106781186548,1.,0.707106781186547,1.,0.,0.,25.1,-25.1,0.,        77P    193
25.1,-25.1,0.,2.64715475755508D-15,-25.1,0.,-25.1,                    77P    194
-3.07386346585986D-15,0.,-25.1,0.,3.14159265358979,0.,0.,0.;          77P    195
126,4,2,0,0,0,0,3.14159265358979,3.14159265358979,                    79P    196
3.14159265358979,4.71238898038469,4.71238898038469,                   79P    197
6.28318530717959,6.28318530717959,6.28318530717959,1.,                79P    198
0.707106781186548,1.,0.707106781186548,1.,-3.07386346585986D-15,      79P    199
0.,-25.1,25.1,0.,-25.1,25.1,0.,-3.50057217416463D-15,25.1,0.,         79P    200
25.1,6.14772693171971D-15,0.,25.1,3.14159265358979,                   79P    201
6.28318530717959,0.,0.,0.;                                            79P    202
126,1,1,0,0,1,0,-0.199203187250996,-0.199203187250996,                81P    203
-0.129482068744789,-0.129482068744789,1.,1.,0.,0.,-25.1,              81P    204
3.81639164714898D-16,1.75000007450581,-25.1,-0.199203187250996,       81P    205
-0.129482068744789,0.,0.,0.;                                          81P    206
126,1,1,0,0,1,0,0.129482074681506,0.129482074681506,                  83P    207
0.278884462151395,0.278884462151395,1.,1.,-2.77555756156289D-16,      83P    208
8.25000007450581,-25.1,0.,12.,-25.1,0.129482074681506,                83P    209
0.278884462151395,0.,0.,0.;                                           83P    210
126,4,2,0,0,0,0,3.14159265358979,3.14159265358979,                    85P    211
3.14159265358979,4.71238898038469,4.71238898038469,                   85P    212
6.28318530717959,6.28318530717959,6.28318530717959,1.,                85P    213
0.707106781186548,1.,0.707106781186548,1.,-3.07386346585986D-15,      85P    214
12.,-25.1,25.1,12.,-25.1,25.1,12.,-3.50057217416463D-15,25.1,         85P    215
12.,25.1,6.14772693171971D-15,12.,25.1,3.14159265358979,              85P    216
6.28318530717959,0.,0.,0.;                                            85P    217
126,4,2,0,0,0,0,0.,0.,0.,1.5707963267949,1.5707963267949,             87P    218
3.14159265358979,3.14159265358979,3.14159265358979,1.,                87P    219
0.707106781186548,1.,0.707106781186547,1.,0.,12.,25.1,-25.1,12.,      87P    220
25.1,-25.1,12.,2.64715475755508D-15,-25.1,12.,-25.1,                  87P    221
-3.07386346585986D-15,12.,-25.1,0.,3.14159265358979,0.,0.,0.;         87P    222
126,8,2,0,1,0,0,-3.14159265358979,-3.14159265358979,                  89P    223
-3.14159265358979,-1.5707963267949,-1.5707963267949,0.,0.,            89P    224
1.5707963267949,1.5707963267949,3.14159265358979,                     89P    225
3.14159265358979,3.14159265358979,1.,0.707106781186548,1.,            89P    226
0.707106781186547,1.,0.707106781186547,1.,0.707106781186548,1.,       89P    227
-31.75,12.,5.44256582176807D-15,-31.75,12.,31.75,                     89P    228
1.94412679364642D-15,12.,31.75,31.75,12.,31.75,31.75,12.,             89P    229
1.55431223447522D-15,31.75,12.,-31.75,1.94412679364642D-15,12.,       89P    230
-31.75,-31.75,12.,-31.75,-31.75,12.,-2.33394135281763D-15,            89P    231
-3.14159265358979,3.14159265358979,0.,0.,0.;                          89P    232
126,4,2,0,0,0,0,0.,0.,0.,1.5707963267949,1.5707963267949,             91P    233
3.14159265358979,3.14159265358979,3.14159265358979,1.,                91P    234
0.707106781186547,1.,0.707106781186548,1.,31.75,20.,                  91P    235
3.33066907387547D-15,31.75,20.,-31.75,1.94412679364642D-15,20.,       91P    236
-31.75,-31.75,20.,-31.75,-31.75,20.,-5.57584513417377D-16,0.,         91P    237
3.14159265358979,0.,0.,0.;                                            91P    238
126,4,2,0,0,0,0,3.14159265358979,3.14159265358979,                    93P    239
3.14159265358979,4.71238898038469,4.71238898038469,                   93P    240
6.28318530717959,6.28318530717959,6.28318530717959,1.,                93P    241
0.707106781186548,1.,0.707106781186548,1.,-31.75,20.,                 93P    242
-5.57584513417377D-16,-31.75,20.,31.75,-5.83238038093927D-15,         93P    243
20.,31.75,31.75,20.,31.75,31.75,20.,1.11071762484612D-14,             93P    244
3.14159265358979,6.28318530717959,0.,0.,0.;                           93P    245
126,1,1,0,0,1,0,-0.236220472440945,-0.236220472440945,                95P    246
0.0157480314960629,0.0157480314960629,1.,1.,-31.75,20.,               95P    247
3.33066907387547D-15,-31.75,12.,1.55431223447522D-15,                 95P    248
-0.236220472440945,0.0157480314960629,0.,0.,0.;                       95P    249
128,1,8,1,2,0,1,0,0,1,11.9692307692308,11.9692307692308,              97P    250
27.4153846153846,27.4153846153846,-3.14159265358979,                  97P    251
-3.14159265358979,-3.14159265358979,-1.5707963267949,                 97P    252
-1.5707963267949,0.,0.,1.5707963267949,1.5707963267949,               97P    253
3.14159265358979,3.14159265358979,3.14159265358979,1.,1.,             97P    254
0.707106781186548,0.707106781186548,1.,1.,0.707106781186548,          97P    255
0.707106781186548,1.,1.,0.707106781186548,0.707106781186548,1.,       97P    256
1.,0.707106781186548,0.707106781186548,1.,1.,-3.25,                   97P    257
5.00000007450581,25.1,-3.25,5.00000007450581,-25.1,-3.25,             97P    258
8.25000007450581,25.1,-3.25,8.25000007450581,-25.1,0.,                97P    259
8.25000007450581,25.1,0.,8.25000007450581,-25.1,3.25,                 97P    260
8.25000007450581,25.1,3.25,8.25000007450581,-25.1,3.25,               97P    261
5.00000007450581,25.1,3.25,5.00000007450581,-25.1,3.25,               97P    262
1.75000007450581,25.1,3.25,1.75000007450581,-25.1,0.,                 97P    263
1.75000007450581,25.1,0.,1.75000007450581,-25.1,-3.25,                97P    264
1.75000007450581,25.1,-3.25,1.75000007450581,-25.1,-3.25,             97P    265
5.00000007450581,25.1,-3.25,5.00000007450581,-25.1,                   97P    266
11.9692307692308,27.4153846153846,-3.14159265358979,                  97P    267
3.14159265358979;                                                     97P    268
128,2,8,2,2,0,1,0,0,1,-1.40998324127395D-15,                          99P    269
-1.40998324127395D-15,-1.40998324127395D-15,1.5707963267949,          99P    270
1.5707963267949,1.5707963267949,-3.14159265358979,                    99P    271
-3.14159265358979,-3.14159265358979,-1.5707963267949,                 99P    272
-1.5707963267949,0.,0.,1.5707963267949,1.5707963267949,               99P    273
3.14159265358979,3.14159265358979,3.14159265358979,1.,                99P    274
0.707106781186543,1.,0.707106781186548,0.499999999999997,             99P    275
0.707106781186548,1.,0.707106781186543,1.,0.707106781186548,          99P    276
0.499999999999997,0.707106781186548,1.,0.707106781186543,1.,          99P    277
0.707106781186548,0.499999999999997,0.707106781186548,1.,             99P    278
0.707106781186543,1.,0.707106781186548,0.499999999999997,             99P    279
0.707106781186548,1.,0.707106781186543,1.,0.,58.,-10.7,0.,58.,        99P    280
-12.7,0.,56.,-12.7,-10.7,58.,-10.7,-12.7,58.,-12.7,-12.7,56.,         99P    281
-12.7,-10.7,58.,1.17683640610267D-14,-12.7,58.,                       99P    282
1.17683640610267D-14,-12.7,56.,1.13242748511766D-14,-10.7,58.,        99P    283
10.7,-12.7,58.,12.7,-12.7,56.,12.7,0.,58.,10.7,0.,58.,12.7,0.,        99P    284
56.,12.7,10.7,58.,10.7,12.7,58.,12.7,12.7,56.,12.7,10.7,58.,          99P    285
1.17683640610267D-14,12.7,58.,1.17683640610267D-14,12.7,56.,          99P    286
1.13242748511766D-14,10.7,58.,-10.7,12.7,58.,-12.7,12.7,56.,          99P    287
-12.7,0.,58.,-10.7,0.,58.,-12.7,0.,56.,-12.7,                         99P    288
-1.40998324127395D-15,1.5707963267949,-3.14159265358979,              99P    289
3.14159265358979;                                                     99P    290
128,1,8,1,2,0,1,0,0,1,-1.49606299212598,-1.49606299212598,           101P    291
1.33858267716535,1.33858267716535,-3.14159265358979,                 101P    292
-3.14159265358979,-3.14159265358979,-1.5707963267949,                101P    293
-1.5707963267949,0.,0.,1.5707963267949,1.5707963267949,              101P    294
3.14159265358979,3.14159265358979,3.14159265358979,1.,1.,            101P    295
0.707106781186548,0.707106781186548,1.,1.,0.707106781186548,         101P    296
0.707106781186548,1.,1.,0.707106781186548,0.707106781186548,1.,      101P    297
1.,0.707106781186548,0.707106781186548,1.,1.,-12.7,56.,              101P    298
1.13242748511766D-14,-12.7,20.,3.33066907387547D-15,-12.7,56.,       101P    299
12.7,-12.7,20.,12.7,0.,56.,12.7,0.,20.,12.7,12.7,56.,12.7,12.7,      101P    300
20.,12.7,12.7,56.,1.13242748511766D-14,12.7,20.,                     101P    301
3.33066907387547D-15,12.7,56.,-12.7,12.7,20.,-12.7,0.,56.,-12.7,     101P    302
0.,20.,-12.7,-12.7,56.,-12.7,-12.7,20.,-12.7,-12.7,56.,              101P    303
1.13242748511766D-14,-12.7,20.,3.33066907387547D-15,                 101P    304
-1.49606299212598,1.33858267716535,-3.14159265358979,                101P    305
3.14159265358979;                                                    101P    306
128,1,1,1,1,0,0,1,0,0,-1.07,-1.07,1.07,1.07,-1.07,-1.07,1.07,        103P    307
1.07,1.,1.,1.,1.,-10.7,58.,10.7,10.7,58.,10.7,-10.7,58.,-10.7,       103P    308
10.7,58.,-10.7,-1.07,1.07,-1.07,1.07;                                103P    309
128,1,1,1,1,0,0,1,0,0,-2.51,-2.51,2.51,2.51,-2.51,-2.51,2.51,        105P    310
2.51,1.,1.,1.,1.,25.1,-5.57331958361829D-15,25.1,-25.1,              105P    311
-5.57331958361829D-15,25.1,25.1,5.57331958361829D-15,-25.1,          105P    312
-25.1,5.57331958361829D-15,-25.1,-2.51,2.51,-2.51,2.51;              105P    313
128,1,8,1,2,0,1,0,0,1,-0.199203187250996,-0.199203187250996,         107P    314
0.278884462151395,0.278884462151395,-3.14159265358979,               107P    315
-3.14159265358979,-3.14159265358979,-1.5707963267949,                107P    316
-1.5707963267949,0.,0.,1.5707963267949,1.5707963267949,              107P    317
3.14159265358979,3.14159265358979,3.14159265358979,1.,1.,            107P    318
0.707106781186548,0.707106781186548,1.,1.,0.707106781186548,         107P    319
0.707106781186548,1.,1.,0.707106781186548,0.707106781186548,1.,      107P    320
1.,0.707106781186548,0.707106781186548,1.,1.,0.,12.,-25.1,0.,0.,     107P    321
-25.1,-25.1,12.,-25.1,-25.1,0.,-25.1,-25.1,12.,                      107P    322
1.11022302462516D-15,-25.1,0.,1.11022302462516D-15,-25.1,12.,        107P    323
25.1,-25.1,0.,25.1,0.,12.,25.1,0.,0.,25.1,25.1,12.,25.1,25.1,0.,     107P    324
25.1,25.1,12.,1.11022302462516D-15,25.1,0.,1.11022302462516D-15,     107P    325
25.1,12.,-25.1,25.1,0.,-25.1,0.,12.,-25.1,0.,0.,-25.1,               107P    326
-0.199203187250996,0.278884462151395,-3.14159265358979,              107P    327
3.14159265358979;                                                    107P    328
128,1,1,1,1,0,0,1,0,0,-3.175,-3.175,3.175,3.175,-3.175,-3.175,       109P    329
3.175,3.175,1.,1.,1.,1.,-31.75,12.,-31.75,31.75,12.,-31.75,          109P    330
-31.75,12.,31.75,31.75,12.,31.75,-3.175,3.175,-3.175,3.175;          109P    331
128,1,8,1,2,0,1,0,0,1,-0.0157480314960629,-0.0157480314960629,       111P    332
0.236220472440945,0.236220472440945,-3.14159265358979,               111P    333
-3.14159265358979,-3.14159265358979,-1.5707963267949,                111P    334
-1.5707963267949,0.,0.,1.5707963267949,1.5707963267949,              111P    335
3.14159265358979,3.14159265358979,3.14159265358979,1.,1.,            111P    336
0.707106781186548,0.707106781186548,1.,1.,0.707106781186548,         111P    337
0.707106781186548,1.,1.,0.707106781186548,0.707106781186548,1.,      111P    338
1.,0.707106781186548,0.707106781186548,1.,1.,-31.75,20.,             111P    339
3.33066907387547D-15,-31.75,12.,1.55431223447522D-15,-31.75,20.,     111P    340
31.75,-31.75,12.,31.75,-4.93038065763132D-31,20.,31.75,0.,12.,       111P    341
31.75,31.75,20.,31.75,31.75,12.,31.75,31.75,20.,                     111P    342
3.33066907387547D-15,31.75,12.,1.55431223447522D-15,31.75,20.,       111P    343
-31.75,31.75,12.,-31.75,4.93038065763132D-31,20.,-31.75,0.,12.,      111P    344
-31.75,-31.75,20.,-31.75,-31.75,12.,-31.75,-31.75,20.,               111P    345
3.33066907387547D-15,-31.75,12.,1.55431223447522D-15,                111P    346
-0.0157480314960629,0.236220472440945,-3.14159265358979,             111P    347
3.14159265358979;                                                    111P    348
128,1,1,1,1,0,0,1,0,0,-3.175,-3.175,3.175,3.175,-3.175,-3.175,       113P    349
3.175,3.175,1.,1.,1.,1.,-31.75,20.,31.75,31.75,20.,31.75,-31.75,     113P    350
20.,-31.75,31.75,20.,-31.75,-3.175,3.175,-3.175,3.175;               113P    351
502,19,3.25,5.00000007450581,24.8887022562447,-3.25,                 115P    352
5.00000007450581,24.8887022562447,-3.25,5.00000007450581,            115P    353
-24.8887022562447,-2.77555756156289D-16,8.25000007450581,-25.1,      115P    354
3.81639164714898D-16,1.75000007450581,-25.1,10.7,58.,                115P    355
1.4389108211202D-14,0.,58.,-10.7,0.,56.,-12.7,-12.7,56.,             115P    356
1.13242748511766D-14,12.7,56.,1.13242748511766D-14,-12.7,20.,        115P    357
3.33066907387547D-15,12.7,20.,3.33066907387547D-15,0.,               115P    358
-5.55111512312578D-15,25.1,0.,0.,-25.1,0.,12.,-25.1,0.,12.,25.1,     115P    359
-31.75,12.,5.44256582176807D-15,31.75,20.,3.33066907387547D-15,      115P    360
-31.75,20.,3.33066907387547D-15;                                     115P    361
504,25,47,115,1,115,2,49,115,2,115,1,51,115,2,115,3,53,115,4,        117P    362
115,3,55,115,5,115,4,57,115,3,115,5,59,115,6,115,7,61,115,7,115,     117P    363
8,63,115,8,115,9,65,115,9,115,10,67,115,10,115,8,69,115,7,115,6,     117P    364
71,115,9,115,11,73,115,12,115,11,75,115,11,115,12,77,115,13,115,     117P    365
14,79,115,14,115,13,81,115,14,115,5,83,115,4,115,15,85,115,15,       117P    366
115,16,87,115,16,115,15,89,115,17,115,17,91,115,18,115,19,93,        117P    367
115,19,115,18,95,115,19,115,17;                                      117P    368
406,1,5HBody1;                                                       119P    369
314,62.7450980392157,62.7450980392157,62.7450980392157,13HSteel      121P    370
- Satin;                                                             121P    371
S      1G      3D    122P    371                                        T      1
