                                                                        S      1
,,8HPotShelf,8HPotShelf,7Hunknown,7Hunknown,32,38,7,99,15,,1.,2,2HMM,1, G      1
0.08,15H20150904.150401,0.01,10000.,7Hunknown,7Hunknown,11,0,;          G      2
     186       1                                                00000000D      1
     186            -125       1       0                               0D      2
     514       2                                                00010000D      3
     514                       1       1                               0D      4
     510       3                                                00010000D      5
     510            -125       1       1                               0D      6
     510       4                                                00010000D      7
     510            -125       1       1                               0D      8
     510       5                                                00010000D      9
     510            -125       1       1                               0D     10
     510       6                                                00010000D     11
     510            -125       1       1                               0D     12
     510       7                                                00010000D     13
     510            -125       1       1                               0D     14
     510       8                                                00010000D     15
     510            -125       1       1                               0D     16
     510       9                                                00010000D     17
     510            -125       1       1                               0D     18
     510      10                                                00010000D     19
     510            -125       1       1                               0D     20
     510      11                                                00010000D     21
     510            -125       1       1                               0D     22
     508      12                                                00010000D     23
     508                       2       1                               0D     24
     508      14                                                00010000D     25
     508                       2       1                               0D     26
     508      16                                                00010000D     27
     508                       2       1                               0D     28
     508      18                                                00010000D     29
     508                       1       1                               0D     30
     508      19                                                00010000D     31
     508                       1       1                               0D     32
     508      20                                                00010000D     33
     508                       1       1                               0D     34
     508      21                                                00010000D     35
     508                       1       1                               0D     36
     508      22                                                00010000D     37
     508                       1       1                               0D     38
     508      23                                                00010000D     39
     508                       1       1                               0D     40
     508      24                                                00010000D     41
     508                       1       1                               0D     42
     508      25                                                00010000D     43
     508                       1       1                               0D     44
     508      26                                                00010000D     45
     508                       1       1                               0D     46
     508      27                                                00010000D     47
     508                       1       1                               0D     48
     508      28                                                00010000D     49
     508                       1       1                               0D     50
     508      29                                                00010000D     51
     508                       1       1                               0D     52
     126      30                                                00010000D     53
     126       0               7       0                               0D     54
     126      37                                                00010000D     55
     126       0               8       0                               0D     56
     126      45                                                00010000D     57
     126       0               4       0                               0D     58
     126      49                                                00010000D     59
     126       0              11       0                               0D     60
     126      60                                                00010000D     61
     126       0               7       0                               0D     62
     126      67                                                00010000D     63
     126       0               8       0                               0D     64
     126      75                                                00010000D     65
     126       0               3       0                               0D     66
     126      78                                                00010000D     67
     126       0              12       0                               0D     68
     126      90                                                00010000D     69
     126       0               8       0                               0D     70
     126      98                                                00010000D     71
     126       0               8       0                               0D     72
     126     106                                                00010000D     73
     126       0               3       0                               0D     74
     126     109                                                00010000D     75
     126       0              12       0                               0D     76
     126     121                                                00010000D     77
     126       0               3       0                               0D     78
     126     124                                                00010000D     79
     126       0               2       0                               0D     80
     126     126                                                00010000D     81
     126       0               3       0                               0D     82
     126     129                                                00010000D     83
     126       0               2       0                               0D     84
     126     131                                                00010000D     85
     126       0               3       0                               0D     86
     126     134                                                00010000D     87
     126       0               2       0                               0D     88
     126     136                                                00010000D     89
     126       0               3       0                               0D     90
     126     139                                                00010000D     91
     126       0               2       0                               0D     92
     126     141                                                00010000D     93
     126       0               2       0                               0D     94
     126     143                                                00010000D     95
     126       0               2       0                               0D     96
     126     145                                                00010000D     97
     126       0               2       0                               0D     98
     126     147                                                00010000D     99
     126       0               2       0                               0D    100
     128     149                                                00010000D    101
     128       0    -125      18       0                               0D    102
     128     167                                                00010000D    103
     128       0    -125      20       0                               0D    104
     128     187                                                00010000D    105
     128       0    -125      20       0                               0D    106
     128     207                                                00010000D    107
     128       0    -125       5       0                               0D    108
     128     212                                                00010000D    109
     128       0    -125       5       0                               0D    110
     128     217                                                00010000D    111
     128       0    -125       5       0                               0D    112
     128     222                                                00010000D    113
     128       0    -125       5       0                               0D    114
     128     227                                                00010000D    115
     128       0    -125       5       0                               0D    116
     128     232                                                00010000D    117
     128       0    -125       5       0                               0D    118
     502     237                                                00010000D    119
     502                      10       1                               0D    120
     504     247                                                00010001D    121
     504                       7       1                               0D    122
     406     254                                                00000000D    123
     406                       1      15                               0D    124
     314     255                                                00000200D    125
     314                       2       0                               0D    126
186,3,1,0,0,1,123;                                                     1P      1
514,9,5,1,7,1,9,1,11,1,13,1,15,1,17,1,19,1,21,1;                       3P      2
510,101,1,1,23;                                                        5P      3
510,103,1,1,25;                                                        7P      4
510,105,1,1,27;                                                        9P      5
510,107,2,1,29,31;                                                    11P      6
510,109,2,1,33,35;                                                    13P      7
510,111,1,1,37;                                                       15P      8
510,113,3,1,39,41,43;                                                 17P      9
510,115,1,1,45;                                                       19P     10
510,117,3,1,47,49,51;                                                 21P     11
508,5,0,121,1,0,0,0,121,2,0,0,0,121,3,1,0,0,121,4,0,0,0,121,3,0,      23P     12
0;                                                                    23P     13
508,5,0,121,5,0,0,0,121,6,0,0,0,121,7,1,0,0,121,8,0,0,0,121,7,0,      25P     14
0;                                                                    25P     15
508,5,0,121,9,0,0,0,121,10,0,0,0,121,11,1,0,0,121,12,0,0,0,121,       27P     16
11,0,0;                                                               27P     17
508,4,0,121,13,1,0,0,121,14,1,0,0,121,15,1,0,0,121,16,1,0;            29P     18
508,2,0,121,1,1,0,0,121,2,1,0;                                        31P     19
508,4,0,121,17,1,0,0,121,18,1,0,0,121,19,1,0,0,121,20,1,0;            33P     20
508,1,0,121,4,1,0;                                                    35P     21
508,4,0,121,21,1,0,0,121,18,0,0,0,121,22,0,0,0,121,16,0,0;            37P     22
508,4,0,121,23,1,0,0,121,19,0,0,0,121,21,0,0,0,121,15,0,0;            39P     23
508,1,0,121,8,1,0;                                                    41P     24
508,1,0,121,12,1,0;                                                   43P     25
508,4,0,121,24,1,0,0,121,20,0,0,0,121,23,0,0,0,121,14,0,0;            45P     26
508,4,0,121,22,1,0,0,121,17,0,0,0,121,24,0,0,0,121,13,0,0;            47P     27
508,2,0,121,5,1,0,0,121,6,1,0;                                        49P     28
508,2,0,121,9,1,0,0,121,10,1,0;                                       51P     29
126,4,2,0,0,0,0,0.,0.,0.,1.5707963267949,1.5707963267949,             53P     30
3.14159265358979,3.14159265358979,3.14159265358979,1.,                53P     31
0.707106781186548,1.,0.707106781186548,1.,0.,39.5,                    53P     32
-5.24999999999999,5.25,39.5,-5.24999999999999,5.25,39.5,              53P     33
8.44929210976256D-15,5.25,39.5,5.25000000000001,                      53P     34
6.42939569552361D-16,39.5,5.25000000000001,0.,3.14159265358979,       53P     35
0.,0.,0.;                                                             53P     36
126,4,2,0,0,0,0,3.14159265358979,3.14159265358979,                    55P     37
3.14159265358979,4.71238898038469,4.71238898038469,                   55P     38
6.28318530717959,6.28318530717959,6.28318530717959,1.,                55P     39
0.707106781186548,1.,0.707106781186548,1.,6.42939569552361D-16,       55P     40
39.5,5.25000000000001,-5.25,39.5,5.25000000000001,-5.25,39.5,         55P     41
9.73517124886728D-15,-5.25,39.5,-5.24999999999999,                    55P     42
-1.28587913910472D-15,39.5,-5.24999999999999,3.14159265358979,        55P     43
6.28318530717959,0.,0.,0.;                                            55P     44
126,1,1,0,0,1,0,-1.42857142857143,-1.42857142857143,                  57P     45
-0.476190476190476,-0.476190476190476,1.,1.,0.,39.5,                  57P     46
5.25000000000001,0.,34.5,5.25000000000001,-1.42857142857143,          57P     47
-0.476190476190476,0.,0.,0.;                                          57P     48
126,8,2,0,1,0,0,-3.14159265358979,-3.14159265358979,                  59P     49
-3.14159265358979,-1.5707963267949,-1.5707963267949,0.,0.,            59P     50
1.5707963267949,1.5707963267949,3.14159265358979,                     59P     51
3.14159265358979,3.14159265358979,1.,0.707106781186548,1.,            59P     52
0.707106781186548,1.,0.707106781186548,1.,0.707106781186548,1.,       59P     53
6.42939569552361D-16,34.5,5.25000000000001,5.25,34.5,                 59P     54
5.25000000000001,5.25,34.5,7.3390690851374D-15,5.25,34.5,             59P     55
-5.24999999999999,0.,34.5,-5.24999999999999,-5.25,34.5,               59P     56
-5.24999999999999,-5.25,34.5,7.3390690851374D-15,-5.25,34.5,          59P     57
5.25000000000001,-6.42939569552361D-16,34.5,5.25000000000001,         59P     58
-3.14159265358979,3.14159265358979,0.,0.,0.;                          59P     59
126,4,2,0,0,0,0,0.,0.,0.,1.5707963267949,1.5707963267949,             61P     60
3.14159265358979,3.14159265358979,3.14159265358979,1.,                61P     61
0.707106781186541,1.,0.707106781186541,1.,-7.00000011920929,          61P     62
37.000000551343,-12.5,-7.00000011920929,38.000000551343,-12.5,        61P     63
-8.00000011920929,38.000000551343,-12.5,-9.00000011920929,            61P     64
38.000000551343,-12.5,-9.00000011920929,37.000000551343,-12.5,        61P     65
0.,3.14159265358979,0.,0.,0.;                                         61P     66
126,4,2,0,0,0,0,3.14159265358979,3.14159265358979,                    63P     67
3.14159265358979,4.71238898038469,4.71238898038469,                   63P     68
6.28318530717959,6.28318530717959,6.28318530717959,1.,                63P     69
0.707106781186541,1.,0.707106781186541,1.,-9.00000011920929,          63P     70
37.000000551343,-12.5,-9.00000011920929,36.000000551343,-12.5,        63P     71
-8.00000011920929,36.000000551343,-12.5,-7.00000011920929,            63P     72
36.000000551343,-12.5,-7.00000011920929,37.000000551343,-12.5,        63P     73
3.14159265358979,6.28318530717959,0.,0.,0.;                           63P     74
126,1,1,0,0,1,0,-62.5,-62.5,-37.5,-37.5,1.,1.,-9.00000011920929,      65P     75
37.000000551343,-12.5,-9.00000011920929,37.000000551343,12.5,         65P     76
-62.5,-37.5,0.,0.,0.;                                                 65P     77
126,8,2,0,1,0,0,-3.14159265358979,-3.14159265358979,                  67P     78
-3.14159265358979,-1.5707963267949,-1.5707963267949,0.,0.,            67P     79
1.5707963267949,1.5707963267949,3.14159265358979,                     67P     80
3.14159265358979,3.14159265358979,1.,0.707106781186541,1.,            67P     81
0.707106781186541,1.,0.707106781186541,1.,0.707106781186541,1.,       67P     82
-9.00000011920929,37.000000551343,12.5,-9.00000011920929,             67P     83
38.000000551343,12.5,-8.00000011920929,38.000000551343,12.5,          67P     84
-7.00000011920929,38.000000551343,12.5,-7.00000011920929,             67P     85
37.000000551343,12.5,-7.00000011920929,36.000000551343,12.5,          67P     86
-8.00000011920929,36.000000551343,12.5,-9.00000011920929,             67P     87
36.000000551343,12.5,-9.00000011920929,37.000000551343,12.5,          67P     88
-3.14159265358979,3.14159265358979,0.,0.,0.;                          67P     89
126,4,2,0,0,0,0,-9.86076131526265D-31,-9.86076131526265D-31,          69P     90
-9.86076131526265D-31,1.5707963267949,1.5707963267949,                69P     91
3.14159265358979,3.14159265358979,3.14159265358979,1.,                69P     92
0.707106781186541,1.,0.707106781186541,1.,9.00000011920929,           69P     93
37.000000551343,-12.5,9.00000011920929,38.000000551343,-12.5,         69P     94
8.00000011920929,38.000000551343,-12.5,7.00000011920929,              69P     95
38.000000551343,-12.5,7.00000011920929,37.000000551343,-12.5,         69P     96
-9.86076131526265D-31,3.14159265358979,0.,0.,0.;                      69P     97
126,4,2,0,0,0,0,3.14159265358979,3.14159265358979,                    71P     98
3.14159265358979,4.71238898038469,4.71238898038469,                   71P     99
6.28318530717959,6.28318530717959,6.28318530717959,1.,                71P    100
0.707106781186541,1.,0.707106781186541,1.,7.00000011920929,           71P    101
37.000000551343,-12.5,7.00000011920929,36.000000551343,-12.5,         71P    102
8.00000011920929,36.000000551343,-12.5,9.00000011920929,              71P    103
36.000000551343,-12.5,9.00000011920929,37.000000551343,-12.5,         71P    104
3.14159265358979,6.28318530717959,0.,0.,0.;                           71P    105
126,1,1,0,0,1,0,-28.,-28.,-3.,-3.,1.,1.,7.00000011920929,             73P    106
37.000000551343,-12.5,7.00000011920929,37.000000551343,12.5,          73P    107
-28.,-3.,0.,0.,0.;                                                    73P    108
126,8,2,0,1,0,0,-3.14159265358979,-3.14159265358979,                  75P    109
-3.14159265358979,-1.5707963267949,-1.5707963267949,0.,0.,            75P    110
1.5707963267949,1.5707963267949,3.14159265358979,                     75P    111
3.14159265358979,3.14159265358979,1.,0.707106781186541,1.,            75P    112
0.707106781186541,1.,0.707106781186541,1.,0.707106781186541,1.,       75P    113
7.00000011920929,37.000000551343,12.5,7.00000011920929,               75P    114
38.000000551343,12.5,8.00000011920929,38.000000551343,12.5,           75P    115
9.00000011920929,38.000000551343,12.5,9.00000011920929,               75P    116
37.000000551343,12.5,9.00000011920929,36.000000551343,12.5,           75P    117
8.00000011920929,36.000000551343,12.5,7.00000011920929,               75P    118
36.000000551343,12.5,7.00000011920929,37.000000551343,12.5,           75P    119
-3.14159265358979,3.14159265358979,0.,0.,0.;                          75P    120
126,1,1,0,0,1,0,-1.26147779351,-1.26147779351,1.26147779351,          77P    121
1.26147779351,1.,1.,12.759957933901,39.5,-12.5,-12.469597936299,      77P    122
39.5,-12.5,-1.26147779351,1.26147779351,0.,0.,0.;                     77P    123
126,1,1,0,0,1,0,-1.25,-1.25,1.25,1.25,1.,1.,-12.469597936299,         79P    124
39.5,-12.5,-12.469597936299,39.5,12.5,-1.25,1.25,0.,0.,0.;            79P    125
126,1,1,0,0,1,0,-1.26147779351,-1.26147779351,1.26147779351,          81P    126
1.26147779351,1.,1.,-12.469597936299,39.5,12.5,12.759957933901,       81P    127
39.5,12.5,-1.26147779351,1.26147779351,0.,0.,0.;                      81P    128
126,1,1,0,0,1,0,-1.25,-1.25,1.25,1.25,1.,1.,12.759957933901,          83P    129
39.5,12.5,12.759957933901,39.5,-12.5,-1.25,1.25,0.,0.,0.;             83P    130
126,1,1,0,0,1,0,-1.26147779351,-1.26147779351,1.26147779351,          85P    131
1.26147779351,1.,1.,-12.469597936299,34.5,-12.5,12.759957933901,      85P    132
34.5,-12.5,-1.26147779351,1.26147779351,0.,0.,0.;                     85P    133
126,1,1,0,0,1,0,-1.25,-1.25,1.25,1.25,1.,1.,12.759957933901,          87P    134
34.5,-12.5,12.759957933901,34.5,12.5,-1.25,1.25,0.,0.,0.;             87P    135
126,1,1,0,0,1,0,-1.26147779351,-1.26147779351,1.26147779351,          89P    136
1.26147779351,1.,1.,12.759957933901,34.5,12.5,-12.469597936299,       89P    137
34.5,12.5,-1.26147779351,1.26147779351,0.,0.,0.;                      89P    138
126,1,1,0,0,1,0,-1.25,-1.25,1.25,1.25,1.,1.,-12.469597936299,         91P    139
34.5,12.5,-12.469597936299,34.5,-12.5,-1.25,1.25,0.,0.,0.;            91P    140
126,1,1,0,0,1,0,-0.25,-0.25,0.25,0.25,1.,1.,12.759957933901,          93P    141
39.5,12.5,12.759957933901,34.5,12.5,-0.25,0.25,0.,0.,0.;              93P    142
126,1,1,0,0,1,0,-0.25,-0.25,0.25,0.25,1.,1.,12.759957933901,          95P    143
39.5,-12.5,12.759957933901,34.5,-12.5,-0.25,0.25,0.,0.,0.;            95P    144
126,1,1,0,0,1,0,-0.25,-0.25,0.25,0.25,1.,1.,-12.469597936299,         97P    145
39.5,12.5,-12.469597936299,34.5,12.5,-0.25,0.25,0.,0.,0.;             97P    146
126,1,1,0,0,1,0,-0.25,-0.25,0.25,0.25,1.,1.,-12.469597936299,         99P    147
39.5,-12.5,-12.469597936299,34.5,-12.5,-0.25,0.25,0.,0.,0.;           99P    148
128,1,8,1,2,0,1,0,0,1,-1.42857142857143,-1.42857142857143,           101P    149
-0.476190476190476,-0.476190476190476,-3.14159265358979,             101P    150
-3.14159265358979,-3.14159265358979,-1.5707963267949,                101P    151
-1.5707963267949,0.,0.,1.5707963267949,1.5707963267949,              101P    152
3.14159265358979,3.14159265358979,3.14159265358979,1.,1.,            101P    153
0.707106781186548,0.707106781186548,1.,1.,0.707106781186548,         101P    154
0.707106781186548,1.,1.,0.707106781186548,0.707106781186548,1.,      101P    155
1.,0.707106781186548,0.707106781186548,1.,1.,0.,39.5,                101P    156
5.25000000000001,0.,34.5,5.25000000000001,-5.25,39.5,                101P    157
5.25000000000001,-5.25,34.5,5.25000000000001,-5.25,39.5,             101P    158
8.77076189453874D-15,-5.25,34.5,7.66053886991358D-15,-5.25,39.5,     101P    159
-5.24999999999999,-5.25,34.5,-5.24999999999999,0.,39.5,              101P    160
-5.24999999999999,0.,34.5,-5.24999999999999,5.25,39.5,               101P    161
-5.24999999999999,5.25,34.5,-5.24999999999999,5.25,39.5,             101P    162
8.77076189453874D-15,5.25,34.5,7.66053886991358D-15,5.25,39.5,       101P    163
5.25000000000001,5.25,34.5,5.25000000000001,0.,39.5,                 101P    164
5.25000000000001,0.,34.5,5.25000000000001,-1.42857142857143,         101P    165
-0.476190476190476,-3.14159265358979,3.14159265358979;               101P    166
128,1,8,1,2,0,1,0,0,1,-62.5,-62.5,-37.5,-37.5,-3.14159265358979,     103P    167
-3.14159265358979,-3.14159265358979,-1.5707963267949,                103P    168
-1.5707963267949,0.,0.,1.5707963267949,1.5707963267949,              103P    169
3.14159265358979,3.14159265358979,3.14159265358979,1.,1.,            103P    170
0.707106781186548,0.707106781186548,1.,1.,0.707106781186548,         103P    171
0.707106781186548,1.,1.,0.707106781186548,0.707106781186548,1.,      103P    172
1.,0.707106781186548,0.707106781186548,1.,1.,-9.00000011920929,      103P    173
37.000000551343,-12.5,-9.00000011920929,37.000000551343,12.5,        103P    174
-9.00000011920929,36.000000551343,-12.5,-9.00000011920929,           103P    175
36.000000551343,12.5,-8.00000011920929,36.000000551343,-12.5,        103P    176
-8.00000011920929,36.000000551343,12.5,-7.00000011920929,            103P    177
36.000000551343,-12.5,-7.00000011920929,36.000000551343,12.5,        103P    178
-7.00000011920929,37.000000551343,-12.5,-7.00000011920929,           103P    179
37.000000551343,12.5,-7.00000011920929,38.000000551343,-12.5,        103P    180
-7.00000011920929,38.000000551343,12.5,-8.00000011920929,            103P    181
38.000000551343,-12.5,-8.00000011920929,38.000000551343,12.5,        103P    182
-9.00000011920929,38.000000551343,-12.5,-9.00000011920929,           103P    183
38.000000551343,12.5,-9.00000011920929,37.000000551343,-12.5,        103P    184
-9.00000011920929,37.000000551343,12.5,-62.5,-37.5,                  103P    185
-3.14159265358979,3.14159265358979;                                  103P    186
128,1,8,1,2,0,1,0,0,1,-28.,-28.,-3.,-3.,-3.14159265358979,           105P    187
-3.14159265358979,-3.14159265358979,-1.5707963267949,                105P    188
-1.5707963267949,0.,0.,1.5707963267949,1.5707963267949,              105P    189
3.14159265358979,3.14159265358979,3.14159265358979,1.,1.,            105P    190
0.707106781186548,0.707106781186548,1.,1.,0.707106781186548,         105P    191
0.707106781186548,1.,1.,0.707106781186548,0.707106781186548,1.,      105P    192
1.,0.707106781186548,0.707106781186548,1.,1.,7.00000011920929,       105P    193
37.000000551343,-12.5,7.00000011920929,37.000000551343,12.5,         105P    194
7.00000011920929,36.000000551343,-12.5,7.00000011920929,             105P    195
36.000000551343,12.5,8.00000011920929,36.000000551343,-12.5,         105P    196
8.00000011920929,36.000000551343,12.5,9.00000011920929,              105P    197
36.000000551343,-12.5,9.00000011920929,36.000000551343,12.5,         105P    198
9.00000011920929,37.000000551343,-12.5,9.00000011920929,             105P    199
37.000000551343,12.5,9.00000011920929,38.000000551343,-12.5,         105P    200
9.00000011920929,38.000000551343,12.5,8.00000011920929,              105P    201
38.000000551343,-12.5,8.00000011920929,38.000000551343,12.5,         105P    202
7.00000011920929,38.000000551343,-12.5,7.00000011920929,             105P    203
38.000000551343,12.5,7.00000011920929,37.000000551343,-12.5,         105P    204
7.00000011920929,37.000000551343,12.5,-28.,-3.,                      105P    205
-3.14159265358979,3.14159265358979;                                  105P    206
128,1,1,1,1,0,0,1,0,0,-1.25,-1.25,1.25,1.25,-1.26147779351,          107P    207
-1.26147779351,1.26147779351,1.26147779351,1.,1.,1.,1.,              107P    208
12.759957933901,39.5,12.5,12.759957933901,39.5,-12.5,                107P    209
-12.469597936299,39.5,12.5,-12.469597936299,39.5,-12.5,-1.25,        107P    210
1.25,-1.26147779351,1.26147779351;                                   107P    211
128,1,1,1,1,0,0,1,0,0,-1.25,-1.25,1.25,1.25,-1.26147779351,          109P    212
-1.26147779351,1.26147779351,1.26147779351,1.,1.,1.,1.,              109P    213
12.759957933901,34.5,-12.5,12.759957933901,34.5,12.5,                109P    214
-12.469597936299,34.5,-12.5,-12.469597936299,34.5,12.5,-1.25,        109P    215
1.25,-1.26147779351,1.26147779351;                                   109P    216
128,1,1,1,1,0,0,1,0,0,-0.250000000000001,-0.250000000000001,         111P    217
0.250000000000001,0.250000000000001,-1.25,-1.25,1.25,1.25,1.,1.,     111P    218
1.,1.,12.759957933901,39.5,12.5,12.759957933901,34.5,12.5,           111P    219
12.759957933901,39.5,-12.5,12.759957933901,34.5,-12.5,               111P    220
-0.250000000000001,0.250000000000001,-1.25,1.25;                     111P    221
128,1,1,1,1,0,0,1,0,0,-0.25,-0.25,0.25,0.25,-1.26147779351,          113P    222
-1.26147779351,1.26147779351,1.26147779351,1.,1.,1.,1.,              113P    223
12.759957933901,34.5,12.5,12.759957933901,39.5,12.5,                 113P    224
-12.469597936299,34.5,12.5,-12.469597936299,39.5,12.5,-0.25,         113P    225
0.25,-1.26147779351,1.26147779351;                                   113P    226
128,1,1,1,1,0,0,1,0,0,-0.250000000000001,-0.250000000000001,         115P    227
0.250000000000001,0.250000000000001,-1.25,-1.25,1.25,1.25,1.,1.,     115P    228
1.,1.,-12.469597936299,34.5,12.5,-12.469597936299,39.5,12.5,         115P    229
-12.469597936299,34.5,-12.5,-12.469597936299,39.5,-12.5,             115P    230
-0.250000000000001,0.250000000000001,-1.25,1.25;                     115P    231
128,1,1,1,1,0,0,1,0,0,-0.25,-0.25,0.25,0.25,-1.26147779351,          117P    232
-1.26147779351,1.26147779351,1.26147779351,1.,1.,1.,1.,              117P    233
12.759957933901,39.5,-12.5,12.759957933901,34.5,-12.5,               117P    234
-12.469597936299,39.5,-12.5,-12.469597936299,34.5,-12.5,-0.25,       117P    235
0.25,-1.26147779351,1.26147779351;                                   117P    236
502,17,0.,39.5,-5.24999999999999,0.,39.5,5.25000000000001,           119P    237
6.42939569552361D-16,34.5,5.25000000000001,-7.00000011920929,        119P    238
37.000000551343,-12.5,-9.00000011920929,37.000000551343,-12.5,       119P    239
-9.00000011920929,37.000000551343,12.5,9.00000011920929,             119P    240
37.000000551343,-12.5,7.00000011920929,37.000000551343,-12.5,        119P    241
7.00000011920929,37.000000551343,12.5,12.759957933901,39.5,          119P    242
-12.5,-12.469597936299,39.5,-12.5,-12.469597936299,39.5,12.5,        119P    243
12.759957933901,39.5,12.5,-12.469597936299,34.5,-12.5,               119P    244
12.759957933901,34.5,-12.5,12.759957933901,34.5,12.5,                119P    245
-12.469597936299,34.5,12.5;                                          119P    246
504,24,53,119,1,119,2,55,119,2,119,1,57,119,2,119,3,59,119,3,        121P    247
119,3,61,119,4,119,5,63,119,5,119,4,65,119,5,119,6,67,119,6,119,     121P    248
6,69,119,7,119,8,71,119,8,119,7,73,119,8,119,9,75,119,9,119,9,       121P    249
77,119,10,119,11,79,119,11,119,12,81,119,12,119,13,83,119,13,        121P    250
119,10,85,119,14,119,15,87,119,15,119,16,89,119,16,119,17,91,        121P    251
119,17,119,14,93,119,13,119,16,95,119,10,119,15,97,119,12,119,       121P    252
17,99,119,11,119,14;                                                 121P    253
406,1,9HPot Shelf;                                                   123P    254
314,62.7450980392157,62.7450980392157,62.7450980392157,13HSteel      125P    255
- Satin;                                                             125P    256
S      1G      2D    126P    256                                        T      1
